<svg width="2007" height="708" viewBox="0 0 2007 708" fill="none" xmlns="http://www.w3.org/2000/svg">
<path d="M293.336 60.4206C301.723 59.59 311.886 61.4961 319.623 64.7976C333.777 70.9538 344.855 82.545 350.371 96.9597C356.079 111.518 355.654 127.769 349.177 142.006C342.522 156.766 331.272 166.146 316.388 171.897C315.785 211.457 316.719 305.59 316.255 345.176C316.129 355.861 315.632 370.034 316.6 380.468C317.124 386.713 318.556 392.849 320.836 398.685C331.543 425.566 357.233 435.139 383.526 423.801C412.623 411.25 431.451 383.595 443.304 355.257L419.438 354.669C435.117 335.687 450.285 316.29 464.923 296.499C477.327 318.976 481.955 352.943 482.147 378.489C475.955 373.225 470.16 368.212 463.63 363.362C450.219 407.365 428.639 444.709 386.137 466.523C377.061 471.184 367.661 474.399 358.512 478.814C333.307 490.973 315.864 505.936 300.218 528.821L297.083 533.561C269.696 492.047 245.68 484.469 204.127 464.911C165.12 446.552 141.972 403.433 130.063 363.033C123.765 368.063 117.55 373.531 111.42 378.79C111.296 348.628 115.903 324.003 128.049 296.181C141.625 315.771 157.934 336.174 173 354.663L149.748 355.154C162.625 387.225 191.368 428.015 229.988 428.095C241.54 428.206 252.629 423.56 260.652 415.247C272.928 402.755 276.684 386.594 276.65 369.594C276.623 356.532 276.697 343.452 276.709 330.389L276.666 202.096L276.592 202.15L276.622 172.01C270.844 169.322 267.228 167.56 262.143 163.655C250.007 154.323 242.08 140.547 240.11 125.365C238.184 109.809 242.599 94.1322 252.36 81.8669C263.026 68.4805 276.615 62.2286 293.336 60.4206ZM325.736 114.819C324.231 99.0998 310.276 87.5687 294.557 89.0515C278.807 90.5365 267.249 104.52 268.755 120.268C270.261 136.017 284.261 147.556 300.006 146.029C315.725 144.505 327.234 130.539 325.736 114.819Z" fill="#5B604A"/>
<path d="M494.962 479.297C510.937 478.581 523.538 479.334 539.378 480.589C545.011 492.487 551.355 504.004 556.976 515.987C480.248 499.944 410.482 511.823 344.249 554.268C329.241 564.12 318.024 574.45 306.311 587.853C307.315 574.229 318.44 556.478 327.649 546.835C370.119 502.388 435.299 482.016 494.962 479.297Z" fill="#C2A27C"/>
<path d="M75.1619 479.304C131.791 476.665 193.915 491.532 240.654 524.376C261.332 538.906 284.336 562.32 288.842 588.251C280.639 579.82 276.084 574.603 266.756 566.723C260.99 562.063 255.048 557.63 248.943 553.424C202.167 521.663 139.843 506.117 83.6496 509.374C67.216 510.323 53.8916 512.681 37.7715 515.755C42.3962 505.339 50.2809 490.497 55.7016 480.48C62.181 479.978 68.669 479.586 75.1619 479.304Z" fill="#C2A27C"/>
<path d="M11.1746 575.307C42.8093 560.643 86.0056 557.055 120.349 558.622C179.462 561.322 237.711 581.461 285.408 616.546C285.953 616.95 287.38 620.992 287.723 621.947C291.158 622.516 302.724 622.198 307.065 622.216C307.39 625.737 307.61 628.627 307.702 632.172C298.297 632.344 286.694 632.515 277.403 631.646C277.233 627.592 277.324 622.908 277.31 618.806C265.075 612.395 244.738 605.121 231.49 600.859C168.373 581.106 101.395 577.022 36.3446 588.962C24.0863 591.105 12.0967 594.105 0 597.014C3.00948 590.835 7.59197 580.775 11.1746 575.307Z" fill="#C2A27C"/>
<path d="M307.064 622.215C307.462 618.639 307.162 618.211 310.463 615.743C324.485 605.242 340.576 595.543 356.398 588.116C408.199 563.391 465.921 553.772 522.945 560.348C540.977 562.375 567.704 567.763 583.612 575.753C587.273 582.85 590.849 589.989 594.352 597.166C581.91 594.135 569.829 591.128 557.197 588.918C492.146 577.039 425.178 581.203 362.098 601.06C348.995 605.297 329.371 612.332 317.106 618.584L317.112 631.687C313.965 631.889 310.855 632.116 307.701 632.171C307.609 628.626 307.389 625.736 307.064 622.215Z" fill="#C2A27C"/>
<path d="M486.598 522.159C512.517 520.518 539.207 525.203 563.662 533.524C567.661 540.571 571.959 549.787 575.639 557.165C510.821 538.41 444.741 541.931 381.349 564.482C353.293 574.658 336.412 584.29 311.883 600.553C351.848 550.209 423.971 524.737 486.598 522.159Z" fill="#C2A27C"/>
<path d="M91.8999 522.159C102.8 521.761 113.713 522.074 124.572 523.096C181.832 528.454 245.086 555.224 282.357 600.112C275.926 596.334 269.493 591.797 262.988 587.89C251.537 581.112 239.639 575.124 227.375 569.956C175.857 548.452 119.638 540.688 64.2194 547.429C47.3694 549.64 35.7675 552.548 19.3418 556.847C23.083 549.101 26.8658 541 30.9382 533.45C50.7536 525.576 70.8256 523.127 91.8999 522.159Z" fill="#C2A27C"/>
<path d="M293.875 0.592619C303.85 -1.9809 314.002 4.06867 316.488 14.0615C318.974 24.0537 312.832 34.1555 302.821 36.552C292.932 38.9186 282.983 32.8727 280.527 23.0042C278.072 13.1363 284.03 3.1343 293.875 0.592619Z" fill="#5B604A"/>
<path d="M38.4188 252.765C48.0681 251.37 57.0078 258.099 58.3371 267.757C59.667 277.415 52.8778 286.31 43.2107 287.573C33.6355 288.826 24.8447 282.115 23.5276 272.549C22.2105 262.983 28.8613 254.146 38.4188 252.765Z" fill="#5B604A"/>
<path d="M550.212 252.834C559.794 251.288 568.813 257.819 570.332 267.406C571.85 276.994 565.299 285.994 555.704 287.489C546.152 288.978 537.194 282.453 535.675 272.901C534.163 263.35 540.666 254.374 550.212 252.834Z" fill="#5B604A"/>
<path d="M567.894 300.063C561.699 360.825 535.515 415.67 496.023 457.921C475.865 459.998 455.427 464.321 435.633 470.802C491.004 432.14 529.457 370.921 537.668 300.47C542.113 302.63 547.104 303.844 552.378 303.844C557.974 303.844 563.25 302.477 567.894 300.063ZM56.6211 299.971C64.6108 369.777 102.287 430.56 156.708 469.385C137.425 463.413 117.601 459.479 98.0791 457.658C58.8427 415.57 32.7933 361.026 26.5117 300.608C30.8831 302.682 35.7709 303.844 40.9307 303.844C46.5969 303.844 51.9348 302.442 56.6211 299.971ZM268.08 1.53809C265.16 6.52718 263.484 12.3338 263.484 18.5322C263.484 23.3031 264.478 27.8414 266.267 31.9541C157.472 45.8154 71.2257 131.873 57.0771 240.578C52.2827 237.955 46.7811 236.463 40.9307 236.463C35.9541 236.463 31.2299 237.543 26.9785 239.479C41.9727 114.102 142.213 14.9158 268.08 1.53809ZM326.269 1.53809C452.312 14.9342 552.656 114.38 567.432 240.007C562.901 237.74 557.789 236.463 552.378 236.463C546.919 236.463 541.764 237.762 537.203 240.066C522.851 131.603 436.706 45.7934 328.082 31.9541C329.871 27.8413 330.865 23.3032 330.865 18.5322C330.865 12.3336 329.189 6.52728 326.269 1.53809Z" fill="#C2A27C"/>
<path d="M764.732 164.206C764.732 145.202 768.28 127.465 775.375 110.995C782.47 94.2708 792.352 79.5742 805.021 66.9047C817.691 53.9818 832.261 43.9729 848.731 36.878C865.455 29.5296 883.319 25.8555 902.323 25.8555C921.327 25.8555 939.191 29.5296 955.915 36.878C972.639 43.9729 987.336 53.9818 1000.01 66.9047C1012.67 79.5742 1022.56 94.2708 1029.65 110.995C1037 127.465 1040.67 145.202 1040.67 164.206C1040.67 183.211 1037 201.075 1029.65 217.798C1022.56 234.269 1012.67 248.839 1000.01 261.508C987.336 274.178 972.639 284.06 955.915 291.155C939.191 298.25 921.327 301.797 902.323 301.797C883.319 301.797 865.455 298.376 848.731 291.535C832.261 284.693 817.691 275.065 805.021 262.648C792.352 250.232 782.47 235.662 775.375 218.939C768.28 202.215 764.732 183.971 764.732 164.206ZM783.737 164.587C783.737 181.057 786.777 196.514 792.859 210.957C798.94 225.4 807.429 238.07 818.324 248.965C829.22 259.861 841.763 268.476 855.953 274.811C870.396 280.893 885.726 283.933 901.943 283.933C918.667 283.933 934.25 280.893 948.694 274.811C963.137 268.476 975.806 259.861 986.702 248.965C997.598 238.07 1006.09 225.4 1012.17 210.957C1018.5 196.514 1021.67 180.93 1021.67 164.206C1021.67 147.736 1018.5 132.279 1012.17 117.836C1006.09 103.139 997.598 90.3432 986.702 79.4475C975.806 68.2983 963.137 59.5564 948.694 53.2216C934.25 46.8869 918.794 43.7195 902.323 43.7195C885.599 43.7195 870.016 47.0136 855.573 53.6017C841.13 59.9364 828.46 68.6784 817.564 79.8276C806.922 90.9767 798.56 103.9 792.479 118.596C786.651 133.039 783.737 148.37 783.737 164.587Z" fill="#5B604A" stroke="#5B604A" stroke-width="17.5328"/>
<path d="M1260.67 25.8555C1279.67 25.8555 1297.54 29.5298 1314.26 36.8779C1328.05 42.7291 1340.47 50.5649 1351.5 60.3799L1340.74 75.2539C1330.85 66.0841 1319.62 58.7392 1307.04 53.2217C1292.6 46.887 1277.14 43.7197 1260.67 43.7197C1243.95 43.7198 1228.36 47.0136 1213.92 53.6016C1199.48 59.9363 1186.81 68.679 1175.91 79.8281C1165.27 90.9772 1156.91 103.9 1150.82 118.597C1145 133.04 1142.08 148.37 1142.08 164.587C1142.08 181.057 1145.12 196.514 1151.21 210.957C1157.29 225.4 1165.77 238.07 1176.67 248.966C1187.57 259.862 1200.11 268.477 1214.3 274.812C1228.74 280.893 1244.07 283.934 1260.29 283.934C1277.01 283.934 1292.6 280.893 1307.04 274.812C1321.48 268.477 1334.15 259.861 1345.05 248.966C1355.94 238.07 1364.43 225.4 1370.51 210.957C1372.98 205.332 1374.97 199.533 1376.47 193.562H1279.38V175.452H1395.62V175.453H1398.58C1397.4 190.299 1393.88 204.414 1388 217.799C1380.9 234.269 1371.02 248.839 1358.35 261.509C1345.68 274.178 1330.98 284.06 1314.26 291.155C1297.54 298.25 1279.67 301.798 1260.67 301.798C1241.66 301.798 1223.8 298.377 1207.08 291.535C1190.61 284.694 1176.04 275.064 1163.37 262.648C1150.7 250.233 1140.82 235.663 1133.72 218.939C1126.63 202.216 1123.08 183.971 1123.08 164.207C1123.08 145.203 1126.63 127.465 1133.72 110.995C1140.82 94.2716 1150.7 79.5747 1163.37 66.9053C1176.04 53.9824 1190.61 43.9728 1207.08 36.8779C1223.8 29.5297 1241.66 25.8555 1260.67 25.8555Z" fill="#5B604A"/>
<path d="M1260.67 25.8555V17.0891H1260.67L1260.67 25.8555ZM1314.26 36.8779L1310.73 44.9038L1310.79 44.9263L1310.84 44.9481L1314.26 36.8779ZM1351.5 60.3799L1358.6 65.5174L1363.25 59.0963L1357.33 53.8297L1351.5 60.3799ZM1340.74 75.2539L1334.78 81.6819L1342.04 88.4149L1347.85 80.3914L1340.74 75.2539ZM1307.04 53.2217L1310.56 45.1935L1310.56 45.1935L1307.04 53.2217ZM1260.67 43.7197V34.9533H1260.67L1260.67 43.7197ZM1213.92 53.6016L1217.44 61.6297L1217.5 61.604L1217.56 61.5774L1213.92 53.6016ZM1175.91 79.8281L1169.64 73.701L1169.6 73.7379L1169.57 73.7751L1175.91 79.8281ZM1150.82 118.597L1142.72 115.245L1142.71 115.281L1142.69 115.316L1150.82 118.597ZM1142.08 164.587L1133.32 164.587V164.587H1142.08ZM1151.21 210.957L1143.13 214.359L1143.13 214.359L1151.21 210.957ZM1176.67 248.966L1170.47 255.165L1170.47 255.165L1176.67 248.966ZM1214.3 274.812L1210.73 282.816L1210.81 282.855L1210.9 282.891L1214.3 274.812ZM1260.29 283.934L1260.29 292.7H1260.29V283.934ZM1307.04 274.812L1310.44 282.891L1310.5 282.866L1310.56 282.84L1307.04 274.812ZM1345.05 248.966L1351.25 255.165V255.165L1345.05 248.966ZM1370.51 210.957L1362.49 207.436L1362.46 207.495L1362.43 207.555L1370.51 210.957ZM1376.47 193.562L1384.97 195.705L1387.72 184.795H1376.47V193.562ZM1279.38 193.562H1270.61V202.328H1279.38V193.562ZM1279.38 175.452V166.686H1270.61V175.452H1279.38ZM1395.62 175.452H1404.38V166.686H1395.62V175.452ZM1395.62 175.453H1386.85V184.22H1395.62V175.453ZM1398.58 175.453L1407.32 176.144L1408.07 166.687H1398.58V175.453ZM1388 217.799L1379.97 214.272L1379.96 214.301L1379.95 214.331L1388 217.799ZM1358.35 261.509L1364.55 267.708L1364.55 267.708L1358.35 261.509ZM1314.26 291.155L1317.68 299.225H1317.68L1314.26 291.155ZM1260.67 301.798L1260.67 310.564H1260.67V301.798ZM1207.08 291.535L1203.71 299.631L1203.74 299.64L1203.76 299.649L1207.08 291.535ZM1163.37 262.648L1157.23 268.909L1157.23 268.91L1163.37 262.648ZM1133.72 218.939L1125.65 222.363L1125.65 222.363L1133.72 218.939ZM1123.08 164.207L1114.31 164.207V164.207L1123.08 164.207ZM1133.72 110.995L1141.77 114.463L1141.78 114.441L1141.79 114.419L1133.72 110.995ZM1163.37 66.9053L1169.57 73.104L1169.6 73.0734L1169.63 73.0424L1163.37 66.9053ZM1207.08 36.8779L1210.55 44.9291L1210.57 44.9165L1210.6 44.9037L1207.08 36.8779ZM1260.67 25.8555V34.6219C1278.51 34.6219 1295.17 38.0638 1310.73 44.9038L1314.26 36.8779L1317.79 28.8521C1299.91 20.9959 1280.84 17.0891 1260.67 17.0891V25.8555ZM1314.26 36.8779L1310.84 44.9481C1323.76 50.4318 1335.36 57.7576 1345.67 66.9301L1351.5 60.3799L1357.33 53.8297C1345.57 43.3721 1332.34 35.0265 1317.68 28.8077L1314.26 36.8779ZM1351.5 60.3799L1344.4 55.2424L1333.64 70.1164L1340.74 75.2539L1347.85 80.3914L1358.6 65.5174L1351.5 60.3799ZM1340.74 75.2539L1346.7 68.8259C1336.08 58.9782 1324.02 51.0972 1310.56 45.1935L1307.04 53.2217L1303.52 61.2498C1315.22 66.3811 1325.62 73.1901 1334.78 81.6819L1340.74 75.2539ZM1307.04 53.2217L1310.56 45.1935C1294.96 38.3504 1278.3 34.9533 1260.67 34.9533V43.7197V52.4861C1275.98 52.4861 1290.24 55.4237 1303.52 61.2499L1307.04 53.2217ZM1260.67 43.7197L1260.67 34.9533C1242.76 34.9534 1225.93 38.489 1210.28 45.6257L1213.92 53.6016L1217.56 61.5774C1230.8 55.5382 1245.13 52.4862 1260.67 52.4861L1260.67 43.7197ZM1213.92 53.6016L1210.4 45.5734C1194.94 52.3544 1181.33 61.7384 1169.64 73.701L1175.91 79.8281L1182.18 85.9553C1192.28 75.6197 1204.01 67.5182 1217.44 61.6297L1213.92 53.6016ZM1175.91 79.8281L1169.57 73.7751C1158.15 85.7331 1149.21 99.5794 1142.72 115.245L1150.82 118.597L1158.92 121.949C1164.6 108.221 1172.38 96.2213 1182.25 85.8811L1175.91 79.8281ZM1150.82 118.597L1142.69 115.316C1136.43 130.845 1133.32 147.293 1133.32 164.587L1142.08 164.587L1150.85 164.587C1150.85 149.447 1153.56 135.234 1158.95 121.877L1150.82 118.597ZM1142.08 164.587H1133.32C1133.32 182.165 1136.57 198.785 1143.13 214.359L1151.21 210.957L1159.28 207.555C1153.68 194.243 1150.85 179.949 1150.85 164.587H1142.08ZM1151.21 210.957L1143.13 214.359C1149.64 229.829 1158.76 243.453 1170.47 255.165L1176.67 248.966L1182.87 242.767C1172.79 232.687 1164.93 220.972 1159.28 207.555L1151.21 210.957ZM1176.67 248.966L1170.47 255.165C1182.13 266.824 1195.57 276.049 1210.73 282.816L1214.3 274.812L1217.87 266.807C1204.65 260.905 1193 252.899 1182.87 242.767L1176.67 248.966ZM1214.3 274.812L1210.9 282.891C1226.45 289.442 1242.95 292.7 1260.29 292.7L1260.29 283.934L1260.29 275.167C1245.2 275.167 1231.03 272.344 1217.7 266.732L1214.3 274.812ZM1260.29 283.934V292.7C1278.1 292.7 1294.85 289.456 1310.44 282.891L1307.04 274.812L1303.64 266.732C1290.34 272.33 1275.92 275.167 1260.29 275.167V283.934ZM1307.04 274.812L1310.56 282.84C1325.98 276.077 1339.56 266.849 1351.25 255.165L1345.05 248.966L1338.85 242.767C1328.74 252.873 1316.99 260.876 1303.52 266.783L1307.04 274.812ZM1345.05 248.966L1351.25 255.165C1362.96 243.453 1372.08 229.829 1378.59 214.359L1370.51 210.957L1362.43 207.555C1356.79 220.971 1348.93 232.687 1338.85 242.767L1345.05 248.966ZM1370.51 210.957L1378.54 214.478C1381.21 208.406 1383.35 202.146 1384.97 195.705L1376.47 193.562L1367.97 191.418C1366.58 196.92 1364.76 202.258 1362.49 207.436L1370.51 210.957ZM1376.47 193.562V184.795H1279.38V193.562V202.328H1376.47V193.562ZM1279.38 193.562H1288.14V175.452H1279.38H1270.61V193.562H1279.38ZM1279.38 175.452V184.219H1395.62V175.452V166.686H1279.38V175.452ZM1395.62 175.452H1386.85V175.453H1395.62H1404.38V175.452H1395.62ZM1395.62 175.453V184.22H1398.58V175.453V166.687H1395.62V175.453ZM1398.58 175.453L1389.84 174.762C1388.74 188.649 1385.45 201.804 1379.97 214.272L1388 217.799L1396.02 221.325C1402.31 207.024 1406.07 191.948 1407.32 176.144L1398.58 175.453ZM1388 217.799L1379.95 214.331C1373.29 229.782 1364.04 243.426 1352.15 255.31L1358.35 261.509L1364.55 267.708C1378 254.253 1388.52 238.756 1396.05 221.267L1388 217.799ZM1358.35 261.509L1352.15 255.31C1340.29 267.172 1326.54 276.424 1310.84 283.085L1314.26 291.155L1317.68 299.225C1335.43 291.697 1351.07 281.184 1364.55 267.708L1358.35 261.509ZM1314.26 291.155L1310.84 283.085C1295.25 289.699 1278.55 293.031 1260.67 293.031V301.798V310.564C1280.79 310.564 1299.83 306.801 1317.68 299.225L1314.26 291.155ZM1260.67 301.798L1260.67 293.031C1242.74 293.031 1226.01 289.81 1210.4 283.421L1207.08 291.535L1203.76 299.649C1221.59 306.943 1240.59 310.564 1260.67 310.564L1260.67 301.798ZM1207.08 291.535L1210.44 283.439C1195 277.025 1181.37 268.016 1169.5 256.387L1163.37 262.648L1157.23 268.91C1170.7 282.113 1186.22 292.363 1203.71 299.631L1207.08 291.535ZM1163.37 262.648L1169.5 256.387C1157.68 244.8 1148.45 231.201 1141.79 215.516L1133.72 218.939L1125.65 222.363C1133.19 240.124 1143.72 255.665 1157.23 268.909L1163.37 262.648ZM1133.72 218.939L1141.79 215.516C1135.19 199.967 1131.84 182.899 1131.84 164.207L1123.08 164.207L1114.31 164.207C1114.31 185.043 1118.06 204.465 1125.65 222.363L1133.72 218.939ZM1123.08 164.207L1131.84 164.207C1131.84 146.323 1135.18 129.774 1141.77 114.463L1133.72 110.995L1125.67 107.527C1118.08 125.157 1114.31 144.083 1114.31 164.207L1123.08 164.207ZM1133.72 110.995L1141.79 114.419C1148.45 98.7171 1157.7 84.9659 1169.57 73.104L1163.37 66.9053L1157.17 60.7065C1143.69 74.1834 1133.18 89.826 1125.65 107.571L1133.72 110.995ZM1163.37 66.9053L1169.63 73.0424C1181.51 60.9251 1195.13 51.5691 1210.55 44.9291L1207.08 36.8779L1203.61 28.8268C1186.08 36.3765 1170.57 47.0397 1157.11 60.7682L1163.37 66.9053ZM1207.08 36.8779L1210.6 44.9037C1226.17 38.0637 1242.83 34.6219 1260.67 34.6219L1260.67 25.8555L1260.67 17.0891C1240.5 17.0891 1221.43 20.9957 1203.55 28.8521L1207.08 36.8779Z" fill="#5B604A"/>
<path d="M1480.98 25.8555H1647.46V43.7195H1499.61V150.903H1632.64V168.767H1499.61V277.852H1652.78V295.716H1480.98V25.8555Z" fill="#5B604A" stroke="#5B604A" stroke-width="17.5328"/>
<path d="M1960.96 307.879L1748.11 68.0449L1753.05 64.2441L1753.43 412.752H1735.19L1735.19 25.8555H1736.33L1949.17 267.59L1944.23 269.11L1943.85 31.5567H1961.72V307.879H1960.96Z" fill="#5B604A" stroke="#5B604A" stroke-width="17.5328"/>
<path d="M1302.31 366.117L776.096 366.117" stroke="#C2A27C" stroke-width="4.91616"/>
<path d="M1363.22 391.618C1349.14 391.618 1337.72 380.202 1337.72 366.119C1337.72 352.036 1349.14 340.619 1363.22 340.619C1377.3 340.619 1388.72 352.036 1388.72 366.119C1388.72 380.202 1377.3 391.618 1363.22 391.618Z" fill="#5B604A"/>
<path d="M1797.16 368.574H1950.35V363.658H1797.16V368.574ZM1424.23 368.574H1694.55V363.658H1424.23V368.574Z" fill="#C2A27C"/>
<path d="M956.797 508.78V444.778H1003.07V452.331H965.266V471.933H1000.67V479.442H965.266V501.227H1004.56V508.78H956.797ZM1050.7 508.78V502.93C1047.76 507.529 1043.44 509.828 1037.73 509.828C1034.04 509.828 1030.63 508.809 1027.52 506.772C1024.43 504.735 1022.03 501.897 1020.31 498.259C1018.63 494.592 1017.78 490.386 1017.78 485.642C1017.78 481.014 1018.55 476.823 1020.1 473.068C1021.64 469.285 1023.95 466.389 1027.04 464.38C1030.12 462.372 1033.57 461.368 1037.38 461.368C1040.18 461.368 1042.67 461.965 1044.85 463.158C1047.03 464.322 1048.81 465.85 1050.18 467.742V444.778H1057.99V508.78H1050.7ZM1025.86 485.642C1025.86 491.579 1027.11 496.018 1029.61 498.957C1032.12 501.897 1035.07 503.367 1038.48 503.367C1041.91 503.367 1044.82 501.97 1047.21 499.176C1049.62 496.352 1050.83 492.059 1050.83 486.297C1050.83 479.952 1049.61 475.295 1047.16 472.326C1044.72 469.357 1041.71 467.873 1038.13 467.873C1034.63 467.873 1031.71 469.299 1029.35 472.151C1027.02 475.004 1025.86 479.501 1025.86 485.642ZM1106.14 508.78V501.97C1102.53 507.209 1097.63 509.828 1091.43 509.828C1088.69 509.828 1086.13 509.304 1083.74 508.256C1081.39 507.209 1079.62 505.899 1078.46 504.327C1077.33 502.726 1076.52 500.776 1076.06 498.477C1075.74 496.934 1075.58 494.49 1075.58 491.143V462.416H1083.44V488.13C1083.44 492.234 1083.6 494.999 1083.92 496.425C1084.41 498.492 1085.46 500.121 1087.06 501.315C1088.66 502.479 1090.64 503.061 1093 503.061C1095.36 503.061 1097.57 502.464 1099.63 501.271C1101.7 500.049 1103.16 498.404 1104 496.338C1104.87 494.242 1105.31 491.215 1105.31 487.257V462.416H1113.17V508.78H1106.14ZM1161.14 491.797L1168.87 492.802C1168.03 498.128 1165.86 502.304 1162.37 505.331C1158.9 508.329 1154.64 509.828 1149.57 509.828C1143.23 509.828 1138.12 507.762 1134.25 503.629C1130.41 499.467 1128.49 493.515 1128.49 485.773C1128.49 480.767 1129.32 476.386 1130.98 472.632C1132.63 468.877 1135.15 466.068 1138.53 464.206C1141.93 462.314 1145.63 461.368 1149.62 461.368C1154.65 461.368 1158.77 462.649 1161.97 465.21C1165.17 467.742 1167.23 471.351 1168.13 476.037L1160.49 477.216C1159.76 474.102 1158.47 471.759 1156.6 470.187C1154.77 468.615 1152.54 467.829 1149.92 467.829C1145.96 467.829 1142.75 469.256 1140.27 472.108C1137.8 474.931 1136.56 479.413 1136.56 485.554C1136.56 491.783 1137.76 496.309 1140.14 499.132C1142.53 501.955 1145.64 503.367 1149.49 503.367C1152.57 503.367 1155.15 502.421 1157.21 500.529C1159.28 498.637 1160.59 495.727 1161.14 491.797ZM1211.21 503.061C1208.3 505.535 1205.49 507.281 1202.79 508.3C1200.11 509.319 1197.23 509.828 1194.14 509.828C1189.05 509.828 1185.13 508.591 1182.4 506.117C1179.66 503.614 1178.3 500.427 1178.3 496.556C1178.3 494.286 1178.8 492.219 1179.82 490.357C1180.87 488.465 1182.22 486.951 1183.88 485.816C1185.57 484.681 1187.46 483.823 1189.56 483.241C1191.1 482.833 1193.43 482.44 1196.54 482.062C1202.89 481.305 1207.56 480.403 1210.56 479.355C1210.59 478.278 1210.6 477.594 1210.6 477.303C1210.6 474.102 1209.86 471.846 1208.38 470.536C1206.37 468.761 1203.38 467.873 1199.43 467.873C1195.73 467.873 1192.99 468.528 1191.22 469.838C1189.47 471.118 1188.18 473.403 1187.33 476.692L1179.65 475.644C1180.35 472.355 1181.5 469.707 1183.1 467.698C1184.7 465.661 1187.01 464.104 1190.04 463.027C1193.07 461.921 1196.57 461.368 1200.56 461.368C1204.52 461.368 1207.73 461.834 1210.21 462.765C1212.68 463.696 1214.5 464.875 1215.67 466.301C1216.83 467.698 1217.65 469.474 1218.11 471.628C1218.37 472.966 1218.5 475.382 1218.5 478.875V489.353C1218.5 496.658 1218.66 501.286 1218.98 503.236C1219.33 505.157 1220 507.005 1220.99 508.78H1212.78C1211.97 507.15 1211.45 505.244 1211.21 503.061ZM1210.56 485.511C1207.71 486.675 1203.43 487.664 1197.72 488.479C1194.49 488.945 1192.21 489.469 1190.87 490.051C1189.53 490.633 1188.5 491.492 1187.77 492.627C1187.04 493.733 1186.68 494.97 1186.68 496.338C1186.68 498.433 1187.46 500.18 1189.03 501.577C1190.64 502.974 1192.96 503.672 1196.02 503.672C1199.05 503.672 1201.74 503.017 1204.1 501.708C1206.45 500.369 1208.19 498.55 1209.29 496.251C1210.14 494.475 1210.56 491.856 1210.56 488.392V485.511ZM1253.25 501.751L1254.39 508.693C1252.17 509.159 1250.19 509.391 1248.45 509.391C1245.6 509.391 1243.38 508.94 1241.81 508.038C1240.24 507.136 1239.13 505.957 1238.49 504.502C1237.85 503.017 1237.53 499.918 1237.53 495.203V468.528H1231.77V462.416H1237.53V450.934L1245.35 446.219V462.416H1253.25V468.528H1245.35V495.639C1245.35 497.88 1245.48 499.321 1245.74 499.961C1246.03 500.602 1246.48 501.111 1247.09 501.489C1247.73 501.868 1248.64 502.057 1249.8 502.057C1250.67 502.057 1251.82 501.955 1253.25 501.751ZM1266.39 453.815V444.778H1274.24V453.815H1266.39ZM1266.39 508.78V462.416H1274.24V508.78H1266.39ZM1288.69 485.598C1288.69 477.012 1291.08 470.653 1295.85 466.52C1299.84 463.085 1304.7 461.368 1310.43 461.368C1316.81 461.368 1322.02 463.464 1326.06 467.655C1330.11 471.817 1332.13 477.58 1332.13 484.943C1332.13 490.91 1331.23 495.61 1329.42 499.045C1327.65 502.45 1325.04 505.098 1321.61 506.99C1318.2 508.882 1314.48 509.828 1310.43 509.828C1303.94 509.828 1298.69 507.747 1294.67 503.585C1290.68 499.423 1288.69 493.427 1288.69 485.598ZM1296.77 485.598C1296.77 491.535 1298.06 495.989 1300.65 498.957C1303.24 501.897 1306.5 503.367 1310.43 503.367C1314.33 503.367 1317.58 501.882 1320.17 498.914C1322.76 495.945 1324.05 491.419 1324.05 485.336C1324.05 479.602 1322.74 475.266 1320.12 472.326C1317.53 469.357 1314.3 467.873 1310.43 467.873C1306.5 467.873 1303.24 469.343 1300.65 472.282C1298.06 475.222 1296.77 479.661 1296.77 485.598ZM1346.75 508.78V462.416H1353.82V469.008C1357.23 463.915 1362.15 461.368 1368.58 461.368C1371.37 461.368 1373.93 461.877 1376.26 462.896C1378.62 463.886 1380.38 465.195 1381.54 466.825C1382.71 468.455 1383.52 470.391 1383.99 472.632C1384.28 474.087 1384.43 476.634 1384.43 480.272V508.78H1376.57V480.577C1376.57 477.376 1376.26 474.989 1375.65 473.418C1375.04 471.817 1373.95 470.551 1372.38 469.619C1370.83 468.659 1369.01 468.179 1366.92 468.179C1363.57 468.179 1360.68 469.241 1358.23 471.366C1355.82 473.49 1354.61 477.521 1354.61 483.459V508.78H1346.75ZM1403.94 508.78V499.83H1412.89V508.78C1412.89 512.069 1412.3 514.718 1411.14 516.726C1409.97 518.763 1408.13 520.335 1405.59 521.441L1403.41 518.079C1405.07 517.352 1406.29 516.275 1407.08 514.849C1407.86 513.452 1408.3 511.429 1408.39 508.78H1403.94ZM1509.05 486.34L1517.52 488.479C1515.75 495.436 1512.55 500.747 1507.92 504.415C1503.32 508.053 1497.69 509.872 1491.02 509.872C1484.12 509.872 1478.51 508.475 1474.17 505.681C1469.86 502.857 1466.57 498.783 1464.3 493.456C1462.06 488.13 1460.94 482.411 1460.94 476.299C1460.94 469.634 1462.21 463.827 1464.74 458.88C1467.3 453.903 1470.93 450.133 1475.61 447.572C1480.33 444.982 1485.51 443.687 1491.15 443.687C1497.56 443.687 1502.94 445.317 1507.31 448.576C1511.67 451.836 1514.71 456.42 1516.43 462.328L1508.09 464.293C1506.61 459.636 1504.45 456.246 1501.63 454.121C1498.81 451.996 1495.26 450.934 1490.98 450.934C1486.06 450.934 1481.94 452.113 1478.62 454.47C1475.33 456.828 1473.02 460 1471.68 463.987C1470.34 467.946 1469.67 472.035 1469.67 476.255C1469.67 481.698 1470.46 486.457 1472.03 490.531C1473.63 494.577 1476.11 497.604 1479.45 499.612C1482.8 501.62 1486.42 502.625 1490.32 502.625C1495.07 502.625 1499.08 501.257 1502.37 498.521C1505.66 495.785 1507.89 491.725 1509.05 486.34ZM1562.75 508.78V501.97C1559.14 507.209 1554.23 509.828 1548.03 509.828C1545.3 509.828 1542.74 509.304 1540.35 508.256C1537.99 507.209 1536.23 505.899 1535.07 504.327C1533.93 502.726 1533.13 500.776 1532.67 498.477C1532.35 496.934 1532.19 494.49 1532.19 491.143V462.416H1540.04V488.13C1540.04 492.234 1540.2 494.999 1540.52 496.425C1541.02 498.492 1542.07 500.121 1543.67 501.315C1545.27 502.479 1547.25 503.061 1549.61 503.061C1551.96 503.061 1554.18 502.464 1556.24 501.271C1558.31 500.049 1559.76 498.404 1560.61 496.338C1561.48 494.242 1561.92 491.215 1561.92 487.257V462.416H1569.78V508.78H1562.75ZM1587.32 508.78V444.778H1595.18V508.78H1587.32ZM1629.93 501.751L1631.06 508.693C1628.85 509.159 1626.87 509.391 1625.12 509.391C1622.27 509.391 1620.06 508.94 1618.49 508.038C1616.92 507.136 1615.81 505.957 1615.17 504.502C1614.53 503.017 1614.21 499.918 1614.21 495.203V468.528H1608.45V462.416H1614.21V450.934L1622.02 446.219V462.416H1629.93V468.528H1622.02V495.639C1622.02 497.88 1622.15 499.321 1622.42 499.961C1622.71 500.602 1623.16 501.111 1623.77 501.489C1624.41 501.868 1625.31 502.057 1626.48 502.057C1627.35 502.057 1628.5 501.955 1629.93 501.751ZM1673.4 508.78V501.97C1669.79 507.209 1664.89 509.828 1658.69 509.828C1655.95 509.828 1653.39 509.304 1651.01 508.256C1648.65 507.209 1646.89 505.899 1645.72 504.327C1644.59 502.726 1643.79 500.776 1643.32 498.477C1643 496.934 1642.84 494.49 1642.84 491.143V462.416H1650.7V488.13C1650.7 492.234 1650.86 494.999 1651.18 496.425C1651.68 498.492 1652.72 500.121 1654.32 501.315C1655.93 502.479 1657.9 503.061 1660.26 503.061C1662.62 503.061 1664.83 502.464 1666.9 501.271C1668.96 500.049 1670.42 498.404 1671.26 496.338C1672.14 494.242 1672.57 491.215 1672.57 487.257V462.416H1680.43V508.78H1673.4ZM1698.06 508.78V462.416H1705.14V469.445C1706.94 466.156 1708.6 463.987 1710.11 462.94C1711.66 461.892 1713.34 461.368 1715.18 461.368C1717.83 461.368 1720.52 462.212 1723.26 463.9L1720.55 471.191C1718.63 470.056 1716.71 469.488 1714.79 469.488C1713.07 469.488 1711.53 470.012 1710.16 471.06C1708.79 472.079 1707.81 473.505 1707.23 475.338C1706.36 478.133 1705.92 481.189 1705.92 484.507V508.78H1698.06ZM1765.03 493.849L1773.15 494.853C1771.87 499.598 1769.5 503.279 1766.03 505.899C1762.57 508.518 1758.15 509.828 1752.76 509.828C1745.98 509.828 1740.6 507.747 1736.61 503.585C1732.65 499.394 1730.67 493.529 1730.67 485.991C1730.67 478.191 1732.68 472.137 1736.7 467.829C1740.71 463.522 1745.92 461.368 1752.33 461.368C1758.53 461.368 1763.59 463.478 1767.52 467.698C1771.45 471.919 1773.41 477.856 1773.41 485.511C1773.41 485.976 1773.4 486.675 1773.37 487.606H1738.79C1739.08 492.7 1740.52 496.6 1743.11 499.307C1745.7 502.013 1748.94 503.367 1752.81 503.367C1755.69 503.367 1758.15 502.61 1760.18 501.097C1762.22 499.583 1763.84 497.167 1765.03 493.849ZM1739.23 481.145H1765.12C1764.77 477.245 1763.78 474.32 1762.15 472.37C1759.65 469.343 1756.4 467.829 1752.41 467.829C1748.8 467.829 1745.76 469.037 1743.29 471.453C1740.84 473.869 1739.49 477.099 1739.23 481.145ZM1110.65 604.227C1108.06 607.109 1105.24 609.277 1102.18 610.732C1099.12 612.159 1095.82 612.872 1092.27 612.872C1085.72 612.872 1080.53 610.66 1076.68 606.236C1073.57 602.627 1072.01 598.596 1072.01 594.143C1072.01 590.184 1073.28 586.619 1075.81 583.446C1078.37 580.245 1082.19 577.436 1087.25 575.02C1084.37 571.703 1082.45 569.01 1081.49 566.944C1080.53 564.877 1080.05 562.884 1080.05 560.963C1080.05 557.121 1081.54 553.788 1084.54 550.965C1087.57 548.113 1091.37 546.687 1095.94 546.687C1100.3 546.687 1103.87 548.025 1106.63 550.703C1109.43 553.381 1110.82 556.597 1110.82 560.352C1110.82 566.434 1106.79 571.63 1098.73 575.937L1110.21 590.563C1111.52 588.001 1112.54 585.033 1113.27 581.656L1121.43 583.403C1120.04 588.991 1118.14 593.59 1115.76 597.199C1118.7 601.099 1122.03 604.373 1125.76 607.022L1120.47 613.265C1117.3 611.227 1114.03 608.215 1110.65 604.227ZM1094.67 570.873C1098.08 568.865 1100.27 567.104 1101.26 565.59C1102.28 564.077 1102.79 562.403 1102.79 560.57C1102.79 558.387 1102.09 556.611 1100.7 555.244C1099.33 553.847 1097.61 553.148 1095.54 553.148C1093.42 553.148 1091.64 553.832 1090.22 555.2C1088.82 556.568 1088.12 558.241 1088.12 560.221C1088.12 561.21 1088.37 562.258 1088.86 563.364C1089.39 564.441 1090.16 565.59 1091.18 566.813L1094.67 570.873ZM1105.72 598.028L1091.31 580.172C1087.06 582.704 1084.19 585.062 1082.71 587.245C1081.22 589.398 1080.48 591.538 1080.48 593.662C1080.48 596.253 1081.52 598.945 1083.58 601.739C1085.65 604.533 1088.57 605.93 1092.36 605.93C1094.72 605.93 1097.15 605.203 1099.65 603.747C1102.18 602.263 1104.2 600.357 1105.72 598.028ZM1215.99 589.34L1224.46 591.479C1222.68 598.436 1219.48 603.747 1214.85 607.415C1210.25 611.053 1204.62 612.872 1197.96 612.872C1191.06 612.872 1185.44 611.475 1181.1 608.681C1176.8 605.857 1173.51 601.783 1171.24 596.456C1169 591.13 1167.87 585.411 1167.87 579.299C1167.87 572.634 1169.14 566.827 1171.67 561.88C1174.23 556.903 1177.86 553.133 1182.54 550.572C1187.26 547.982 1192.44 546.687 1198.09 546.687C1204.49 546.687 1209.87 548.317 1214.24 551.576C1218.61 554.836 1221.65 559.42 1223.36 565.328L1215.03 567.293C1213.54 562.636 1211.39 559.246 1208.56 557.121C1205.74 554.996 1202.19 553.934 1197.91 553.934C1192.99 553.934 1188.87 555.113 1185.56 557.47C1182.27 559.828 1179.95 563 1178.61 566.987C1177.28 570.946 1176.61 575.035 1176.61 579.255C1176.61 584.698 1177.39 589.457 1178.96 593.531C1180.56 597.577 1183.04 600.604 1186.39 602.612C1189.73 604.62 1193.36 605.625 1197.26 605.625C1202 605.625 1206.02 604.257 1209.31 601.521C1212.59 598.785 1214.82 594.725 1215.99 589.34ZM1236.37 588.598C1236.37 580.012 1238.76 573.653 1243.53 569.52C1247.52 566.085 1252.38 564.368 1258.11 564.368C1264.48 564.368 1269.69 566.464 1273.74 570.655C1277.79 574.817 1279.81 580.58 1279.81 587.943C1279.81 593.91 1278.91 598.61 1277.1 602.045C1275.33 605.45 1272.72 608.098 1269.29 609.99C1265.88 611.882 1262.16 612.828 1258.11 612.828C1251.62 612.828 1246.37 610.747 1242.35 606.585C1238.36 602.423 1236.37 596.427 1236.37 588.598ZM1244.45 588.598C1244.45 594.535 1245.74 598.989 1248.33 601.957C1250.92 604.897 1254.18 606.367 1258.11 606.367C1262.01 606.367 1265.26 604.882 1267.85 601.914C1270.44 598.945 1271.73 594.419 1271.73 588.336C1271.73 582.602 1270.42 578.266 1267.8 575.326C1265.21 572.357 1261.98 570.873 1258.11 570.873C1254.18 570.873 1250.92 572.343 1248.33 575.282C1245.74 578.222 1244.45 582.661 1244.45 588.598ZM1294.43 611.78V565.416H1301.46V571.921C1302.91 569.651 1304.85 567.832 1307.26 566.464C1309.68 565.067 1312.43 564.368 1315.51 564.368C1318.95 564.368 1321.76 565.081 1323.94 566.507C1326.15 567.933 1327.71 569.927 1328.61 572.488C1332.28 567.075 1337.05 564.368 1342.93 564.368C1347.53 564.368 1351.07 565.649 1353.54 568.21C1356.01 570.742 1357.25 574.657 1357.25 579.954V611.78H1349.44V582.573C1349.44 579.43 1349.17 577.174 1348.65 575.806C1348.16 574.409 1347.24 573.289 1345.9 572.445C1344.56 571.601 1342.99 571.179 1341.19 571.179C1337.93 571.179 1335.22 572.27 1333.07 574.453C1330.91 576.607 1329.83 580.07 1329.83 584.843V611.78H1321.98V581.656C1321.98 578.164 1321.34 575.544 1320.06 573.798C1318.77 572.052 1316.68 571.179 1313.77 571.179C1311.56 571.179 1309.5 571.761 1307.61 572.925C1305.75 574.089 1304.4 575.792 1303.55 578.033C1302.71 580.274 1302.29 583.505 1302.29 587.725V611.78H1294.43ZM1374.27 611.78V565.416H1381.3V571.921C1382.76 569.651 1384.69 567.832 1387.11 566.464C1389.52 565.067 1392.27 564.368 1395.36 564.368C1398.79 564.368 1401.6 565.081 1403.79 566.507C1406 567.933 1407.55 569.927 1408.46 572.488C1412.12 567.075 1416.9 564.368 1422.78 564.368C1427.38 564.368 1430.91 565.649 1433.39 568.21C1435.86 570.742 1437.1 574.657 1437.1 579.954V611.78H1429.28V582.573C1429.28 579.43 1429.02 577.174 1428.5 575.806C1428 574.409 1427.08 573.289 1425.75 572.445C1424.41 571.601 1422.83 571.179 1421.03 571.179C1417.77 571.179 1415.06 572.27 1412.91 574.453C1410.76 576.607 1409.68 580.07 1409.68 584.843V611.78H1401.82V581.656C1401.82 578.164 1401.18 575.544 1399.9 573.798C1398.62 572.052 1396.52 571.179 1393.61 571.179C1391.4 571.179 1389.35 571.761 1387.46 572.925C1385.59 574.089 1384.24 575.792 1383.4 578.033C1382.55 580.274 1382.13 583.505 1382.13 587.725V611.78H1374.27ZM1484.5 611.78V604.97C1480.89 610.209 1475.99 612.828 1469.79 612.828C1467.05 612.828 1464.49 612.304 1462.11 611.256C1459.75 610.209 1457.99 608.899 1456.82 607.327C1455.69 605.726 1454.89 603.776 1454.42 601.477C1454.1 599.934 1453.94 597.49 1453.94 594.143V565.416H1461.8V591.13C1461.8 595.234 1461.96 597.999 1462.28 599.425C1462.78 601.492 1463.82 603.121 1465.42 604.315C1467.03 605.479 1469 606.061 1471.36 606.061C1473.72 606.061 1475.93 605.464 1478 604.271C1480.06 603.049 1481.52 601.404 1482.36 599.338C1483.24 597.242 1483.67 594.215 1483.67 590.257V565.416H1491.53V611.78H1484.5ZM1509.25 611.78V565.416H1516.32V572.008C1519.73 566.915 1524.65 564.368 1531.08 564.368C1533.87 564.368 1536.44 564.877 1538.76 565.896C1541.12 566.886 1542.88 568.195 1544.05 569.825C1545.21 571.455 1546.03 573.391 1546.49 575.632C1546.78 577.087 1546.93 579.634 1546.93 583.272V611.78H1539.07V583.577C1539.07 580.376 1538.76 577.989 1538.15 576.418C1537.54 574.817 1536.45 573.551 1534.88 572.619C1533.34 571.659 1531.52 571.179 1529.42 571.179C1526.07 571.179 1523.18 572.241 1520.73 574.366C1518.32 576.49 1517.11 580.521 1517.11 586.459V611.78H1509.25ZM1564.43 556.815V547.778H1572.29V556.815H1564.43ZM1564.43 611.78V565.416H1572.29V611.78H1564.43ZM1606.82 604.751L1607.95 611.693C1605.74 612.159 1603.76 612.391 1602.01 612.391C1599.16 612.391 1596.95 611.94 1595.38 611.038C1593.81 610.136 1592.7 608.957 1592.06 607.502C1591.42 606.017 1591.1 602.918 1591.1 598.203V571.528H1585.34V565.416H1591.1V553.934L1598.91 549.219V565.416H1606.82V571.528H1598.91V598.639C1598.91 600.88 1599.05 602.321 1599.31 602.961C1599.6 603.602 1600.05 604.111 1600.66 604.489C1601.3 604.868 1602.2 605.057 1603.37 605.057C1604.24 605.057 1605.39 604.955 1606.82 604.751ZM1619.56 629.636L1618.69 622.258C1620.4 622.724 1621.9 622.957 1623.18 622.957C1624.93 622.957 1626.33 622.666 1627.37 622.083C1628.42 621.501 1629.28 620.686 1629.95 619.639C1630.44 618.853 1631.24 616.903 1632.35 613.789C1632.5 613.352 1632.73 612.712 1633.05 611.868L1615.46 565.416H1623.92L1633.57 592.265C1634.82 595.671 1635.95 599.251 1636.93 603.005C1637.84 599.396 1638.91 595.874 1640.17 592.44L1650.08 565.416H1657.93L1640.3 612.566C1638.4 617.66 1636.93 621.167 1635.89 623.088C1634.49 625.678 1632.89 627.57 1631.08 628.763C1629.28 629.986 1627.13 630.597 1624.62 630.597C1623.11 630.597 1621.42 630.277 1619.56 629.636Z" fill="#5B604A"/>
</svg>
