<svg width="2007" height="708" viewBox="0 0 2007 708" fill="none" xmlns="http://www.w3.org/2000/svg">
<path d="M293.337 60.4206C301.724 59.59 311.887 61.4961 319.624 64.7976C333.778 70.9538 344.856 82.545 350.372 96.9597C356.079 111.517 355.655 127.769 349.178 142.006C342.523 156.766 331.272 166.146 316.388 171.897C315.785 211.457 316.719 305.59 316.255 345.176C316.129 355.861 315.632 370.034 316.6 380.468C317.124 386.713 318.556 392.849 320.836 398.685C331.543 425.566 357.233 435.139 383.526 423.801C412.623 411.25 431.451 383.595 443.305 355.257L419.439 354.669C435.118 335.687 450.286 316.29 464.924 296.499C477.328 318.976 481.956 352.943 482.148 378.489C475.956 373.225 470.161 368.212 463.631 363.362C450.22 407.365 428.64 444.708 386.138 466.522C377.062 471.183 367.661 474.399 358.512 478.814C333.307 490.973 315.864 505.936 300.218 528.821L297.083 533.561C269.696 492.047 245.681 484.468 204.128 464.91C165.121 446.551 141.973 403.433 130.064 363.033C123.766 368.063 117.55 373.531 111.42 378.79C111.296 348.628 115.904 324.003 128.05 296.181C141.626 315.771 157.935 336.174 173 354.663L149.748 355.154C162.625 387.225 191.369 428.015 229.989 428.095C241.541 428.206 252.629 423.559 260.652 415.247C272.928 402.755 276.685 386.594 276.651 369.594C276.624 356.532 276.697 343.451 276.709 330.388L276.666 202.095L276.593 202.15L276.622 172.01C270.844 169.322 267.229 167.56 262.144 163.655C250.008 154.323 242.08 140.547 240.11 125.365C238.184 109.809 242.6 94.1313 252.361 81.8659C263.027 68.4798 276.616 62.2285 293.337 60.4206ZM325.736 114.819C324.231 99.0997 310.276 87.5684 294.557 89.0515C278.807 90.5366 267.249 104.519 268.755 120.267C270.261 136.016 284.261 147.556 300.006 146.029C315.725 144.506 327.234 130.539 325.736 114.819Z" fill="#5B604A"/>
<path d="M494.962 479.297C510.937 478.581 523.538 479.334 539.378 480.589C545.011 492.487 551.355 504.004 556.976 515.987C480.248 499.944 410.482 511.823 344.249 554.268C329.241 564.12 318.024 574.45 306.311 587.853C307.315 574.229 318.44 556.478 327.649 546.835C370.119 502.388 435.299 482.016 494.962 479.297Z" fill="#C2A27C"/>
<path d="M75.1619 479.304C131.791 476.665 193.915 491.532 240.654 524.376C261.332 538.906 284.336 562.32 288.842 588.251C280.639 579.82 276.084 574.603 266.756 566.723C260.99 562.063 255.048 557.63 248.943 553.424C202.167 521.663 139.843 506.117 83.6496 509.374C67.216 510.323 53.8916 512.681 37.7715 515.755C42.3962 505.339 50.2809 490.497 55.7016 480.48C62.181 479.978 68.669 479.586 75.1619 479.304Z" fill="#C2A27C"/>
<path d="M11.1746 575.307C42.8093 560.643 86.0056 557.055 120.349 558.622C179.462 561.322 237.711 581.461 285.408 616.546C285.953 616.95 287.38 620.992 287.723 621.947C291.158 622.516 302.724 622.198 307.065 622.216C307.39 625.737 307.61 628.627 307.702 632.172C298.297 632.344 286.694 632.515 277.403 631.646C277.233 627.592 277.324 622.908 277.31 618.806C265.075 612.395 244.738 605.121 231.49 600.859C168.373 581.106 101.395 577.022 36.3446 588.962C24.0863 591.105 12.0967 594.105 0 597.014C3.00948 590.835 7.59197 580.775 11.1746 575.307Z" fill="#C2A27C"/>
<path d="M307.064 622.215C307.462 618.639 307.162 618.211 310.463 615.743C324.485 605.242 340.576 595.543 356.398 588.116C408.199 563.391 465.921 553.772 522.945 560.348C540.977 562.375 567.704 567.763 583.612 575.753C587.273 582.85 590.849 589.989 594.352 597.166C581.91 594.135 569.829 591.128 557.197 588.918C492.146 577.039 425.178 581.203 362.098 601.06C348.995 605.297 329.371 612.332 317.106 618.584L317.112 631.687C313.965 631.889 310.855 632.116 307.701 632.171C307.609 628.626 307.389 625.736 307.064 622.215Z" fill="#C2A27C"/>
<path d="M486.598 522.159C512.517 520.518 539.207 525.203 563.662 533.524C567.661 540.571 571.959 549.787 575.639 557.165C510.821 538.41 444.741 541.931 381.349 564.482C353.293 574.658 336.412 584.29 311.883 600.553C351.848 550.209 423.971 524.737 486.598 522.159Z" fill="#C2A27C"/>
<path d="M91.8999 522.159C102.8 521.761 113.713 522.074 124.572 523.096C181.832 528.454 245.086 555.224 282.357 600.112C275.926 596.334 269.493 591.797 262.988 587.89C251.537 581.112 239.639 575.124 227.375 569.956C175.857 548.452 119.638 540.688 64.2194 547.429C47.3694 549.64 35.7675 552.548 19.3418 556.847C23.083 549.101 26.8658 541 30.9382 533.45C50.7536 525.576 70.8256 523.127 91.8999 522.159Z" fill="#C2A27C"/>
<path d="M293.875 0.592619C303.85 -1.9809 314.002 4.06867 316.488 14.0615C318.974 24.0537 312.832 34.1555 302.821 36.552C292.932 38.9186 282.983 32.8727 280.527 23.0042C278.072 13.1363 284.03 3.1343 293.875 0.592619Z" fill="#5B604A"/>
<path d="M38.4188 252.765C48.0681 251.37 57.0078 258.099 58.3371 267.757C59.667 277.415 52.8778 286.31 43.2107 287.573C33.6355 288.826 24.8447 282.115 23.5276 272.549C22.2105 262.983 28.8613 254.146 38.4188 252.765Z" fill="#5B604A"/>
<path d="M550.212 252.834C559.794 251.288 568.813 257.819 570.332 267.406C571.85 276.994 565.299 285.994 555.704 287.489C546.152 288.978 537.194 282.453 535.675 272.901C534.163 263.35 540.666 254.374 550.212 252.834Z" fill="#5B604A"/>
<path d="M567.894 300.063C561.699 360.825 535.515 415.67 496.023 457.921C475.865 459.998 455.427 464.321 435.633 470.802C491.004 432.14 529.457 370.921 537.668 300.47C542.113 302.63 547.104 303.844 552.378 303.844C557.974 303.844 563.25 302.477 567.894 300.063ZM56.6211 299.972C64.6109 369.777 102.286 430.56 156.706 469.384C137.423 463.413 117.6 459.479 98.0781 457.658C58.8418 415.569 32.7931 361.026 26.5117 300.607C30.8836 302.681 35.7721 303.844 40.9326 303.844C46.5981 303.844 51.9352 302.442 56.6211 299.972ZM268.08 1.53809C265.16 6.52718 263.484 12.3338 263.484 18.5322C263.484 23.3031 264.478 27.8414 266.267 31.9541C157.472 45.8154 71.2261 131.873 57.0771 240.577C52.2831 237.955 46.7823 236.463 40.9326 236.463C35.9553 236.463 31.2304 237.543 26.9785 239.48C41.9723 114.102 142.213 14.9158 268.08 1.53809ZM326.269 1.53809C452.312 14.9342 552.656 114.38 567.432 240.007C562.901 237.74 557.789 236.463 552.378 236.463C546.919 236.463 541.764 237.762 537.203 240.066C522.851 131.603 436.706 45.7934 328.082 31.9541C329.871 27.8413 330.865 23.3032 330.865 18.5322C330.865 12.3336 329.189 6.52728 326.269 1.53809Z" fill="#C2A27C"/>
<path d="M799.777 171.883C799.777 151.974 803.494 133.393 810.926 116.139C818.359 98.6189 828.711 83.2228 841.984 69.9502C855.256 56.4123 870.52 45.927 887.774 38.4944C905.294 30.7963 924.008 26.9473 943.917 26.9473C963.826 26.9473 982.54 30.7963 1000.06 38.4944C1017.58 45.927 1032.98 56.4123 1046.25 69.9502C1059.52 83.2228 1069.87 98.6189 1077.31 116.139C1085 133.393 1088.85 151.974 1088.85 171.883C1088.85 191.792 1085 210.506 1077.31 228.026C1069.87 245.28 1059.52 260.544 1046.25 273.816C1032.98 287.089 1017.58 297.441 1000.06 304.874C982.54 312.306 963.826 316.023 943.917 316.023C924.008 316.023 905.294 312.439 887.774 305.272C870.52 298.105 855.256 288.018 841.984 275.011C828.711 262.004 818.359 246.74 810.926 229.22C803.494 211.701 799.777 192.588 799.777 171.883ZM819.686 172.281C819.686 189.536 822.872 205.728 829.242 220.859C835.613 235.989 844.506 249.262 855.92 260.676C867.334 272.091 880.474 281.116 895.339 287.752C910.47 294.123 926.53 297.309 943.519 297.309C961.038 297.309 977.364 294.123 992.494 287.752C1007.63 281.116 1020.9 272.091 1032.31 260.676C1043.73 249.262 1052.62 235.989 1058.99 220.859C1065.63 205.728 1068.94 189.403 1068.94 171.883C1068.94 154.629 1065.63 138.436 1058.99 123.306C1052.62 107.91 1043.73 94.5044 1032.31 83.09C1020.9 71.4102 1007.63 62.2522 992.494 55.6159C977.364 48.9797 961.171 45.6615 943.917 45.6615C926.397 45.6615 910.072 49.1124 894.941 56.0141C879.811 62.6504 866.538 71.8084 855.124 83.4882C843.975 95.168 835.215 108.706 828.844 124.102C822.739 139.233 819.686 155.293 819.686 172.281Z" fill="#5B604A" stroke="#5B604A" stroke-width="18.3673"/>
<path d="M1175.18 26.9473H1363.69V61.1835H1213.76V318.455H1175.18V26.9473Z" fill="#5B604A"/>
<path d="M1450.01 318.46V26.9473H1660.79V61.3481H1488.59V150.631H1649.86V184.833H1488.59V284.059H1667.55V318.46H1450.01Z" fill="#5B604A"/>
<path d="M1753.88 424.739V26.9473H1792.46V146.654H1943.98V26.9473H1982.56V318.46H1943.98V181.055H1792.46V424.739H1753.88Z" fill="#5B604A"/>
<path d="M1327.36 383.402L776.095 383.402" stroke="#C2A27C" stroke-width="5.15015"/>
<path d="M1391.17 410.117C1376.41 410.117 1364.45 398.157 1364.45 383.404C1364.45 368.65 1376.41 356.69 1391.17 356.69C1405.92 356.69 1417.88 368.65 1417.88 383.404C1417.88 398.157 1405.92 410.117 1391.17 410.117Z" fill="#5B604A"/>
<path d="M1828.47 385.977H2006.24V380.826H1828.47V385.977ZM1455.08 385.977H1720.99V380.826H1455.08V385.977Z" fill="#C2A27C"/>
<path d="M825.853 477.609C825.853 466.985 828.706 458.676 834.41 452.68C840.115 446.655 847.479 443.643 856.501 443.643C862.41 443.643 867.736 445.055 872.48 447.878C877.224 450.701 880.833 454.645 883.307 459.709C885.81 464.744 887.062 470.463 887.062 476.866C887.062 483.357 885.752 489.163 883.132 494.286C880.513 499.408 876.802 503.294 872 505.943C867.197 508.562 862.017 509.872 856.458 509.872C850.433 509.872 845.048 508.416 840.304 505.506C835.56 502.595 831.966 498.623 829.521 493.587C827.076 488.552 825.853 483.226 825.853 477.609ZM834.585 477.74C834.585 485.453 836.651 491.535 840.784 495.989C844.946 500.413 850.156 502.625 856.414 502.625C862.788 502.625 868.027 500.383 872.131 495.901C876.264 491.419 878.33 485.06 878.33 476.823C878.33 471.613 877.442 467.073 875.667 463.202C873.921 459.302 871.345 456.289 867.94 454.164C864.563 452.011 860.765 450.934 856.545 450.934C850.549 450.934 845.383 453 841.046 457.133C836.739 461.237 834.585 468.106 834.585 477.74ZM936.346 443.25L943.287 443.337C942.967 446.452 942.269 448.62 941.192 449.842C940.144 451.065 938.776 451.851 937.088 452.2C935.429 452.549 932.155 452.724 927.265 452.724C920.775 452.724 916.351 453.35 913.993 454.601C911.636 455.853 909.933 457.861 908.885 460.626C907.867 463.362 907.299 466.898 907.183 471.235C909.162 468.295 911.476 466.098 914.124 464.642C916.773 463.158 919.756 462.416 923.074 462.416C929.157 462.416 934.192 464.511 938.18 468.703C942.167 472.865 944.161 478.511 944.161 485.642C944.161 491.055 943.156 495.494 941.148 498.957C939.14 502.421 936.753 505.098 933.988 506.99C931.252 508.882 927.512 509.828 922.768 509.828C917.267 509.828 912.989 508.577 909.933 506.073C906.877 503.541 904.534 500.311 902.904 496.381C901.274 492.452 900.459 485.613 900.459 475.862C900.459 463.609 902.526 455.358 906.659 451.108C910.821 446.859 917.209 444.734 925.824 444.734C931.18 444.734 934.221 444.647 934.949 444.472C935.676 444.298 936.142 443.89 936.346 443.25ZM935.953 485.423C935.953 480.592 934.803 476.634 932.504 473.549C930.234 470.463 927.018 468.921 922.856 468.921C918.519 468.921 915.172 470.551 912.814 473.81C910.457 477.07 909.278 481.421 909.278 486.864C909.278 492.249 910.573 496.367 913.164 499.219C915.783 502.072 918.999 503.498 922.812 503.498C926.712 503.498 929.87 501.853 932.286 498.564C934.731 495.246 935.953 490.866 935.953 485.423ZM958.999 526.549V462.416H966.159V468.441C967.847 466.083 969.753 464.322 971.878 463.158C974.003 461.965 976.579 461.368 979.605 461.368C983.564 461.368 987.056 462.387 990.083 464.424C993.11 466.461 995.395 469.343 996.938 473.068C998.48 476.765 999.251 480.825 999.251 485.249C999.251 489.993 998.393 494.271 996.676 498.084C994.987 501.868 992.514 504.778 989.254 506.816C986.023 508.824 982.618 509.828 979.038 509.828C976.418 509.828 974.061 509.275 971.965 508.169C969.899 507.063 968.196 505.666 966.857 503.978V526.549H958.999ZM966.115 485.86C966.115 491.827 967.323 496.236 969.739 499.088C972.155 501.941 975.08 503.367 978.514 503.367C982.007 503.367 984.99 501.897 987.464 498.957C989.967 495.989 991.218 491.405 991.218 485.205C991.218 479.297 989.996 474.873 987.551 471.933C985.135 468.994 982.239 467.524 978.863 467.524C975.516 467.524 972.547 469.095 969.957 472.239C967.396 475.353 966.115 479.893 966.115 485.86ZM1044.39 503.061C1041.48 505.535 1038.67 507.281 1035.96 508.3C1033.28 509.319 1030.4 509.828 1027.32 509.828C1022.22 509.828 1018.31 508.591 1015.57 506.117C1012.84 503.614 1011.47 500.427 1011.47 496.556C1011.47 494.286 1011.98 492.219 1013 490.357C1014.05 488.465 1015.4 486.951 1017.06 485.816C1018.75 484.681 1020.64 483.823 1022.73 483.241C1024.28 482.833 1026.6 482.44 1029.72 482.062C1036.06 481.305 1040.74 480.403 1043.73 479.355C1043.76 478.278 1043.78 477.594 1043.78 477.303C1043.78 474.102 1043.03 471.846 1041.55 470.536C1039.54 468.761 1036.56 467.873 1032.6 467.873C1028.9 467.873 1026.17 468.528 1024.39 469.838C1022.65 471.118 1021.35 473.403 1020.51 476.692L1012.82 475.644C1013.52 472.355 1014.67 469.707 1016.27 467.698C1017.87 465.661 1020.19 464.104 1023.21 463.027C1026.24 461.921 1029.75 461.368 1033.74 461.368C1037.69 461.368 1040.91 461.834 1043.38 462.765C1045.86 463.696 1047.68 464.875 1048.84 466.301C1050.01 467.698 1050.82 469.474 1051.29 471.628C1051.55 472.966 1051.68 475.382 1051.68 478.875V489.353C1051.68 496.658 1051.84 501.286 1052.16 503.236C1052.51 505.157 1053.18 507.005 1054.17 508.78H1045.96C1045.14 507.15 1044.62 505.244 1044.39 503.061ZM1043.73 485.511C1040.88 486.675 1036.6 487.664 1030.9 488.479C1027.67 488.945 1025.38 489.469 1024.04 490.051C1022.7 490.633 1021.67 491.492 1020.94 492.627C1020.22 493.733 1019.85 494.97 1019.85 496.338C1019.85 498.433 1020.64 500.18 1022.21 501.577C1023.81 502.974 1026.14 503.672 1029.2 503.672C1032.22 503.672 1034.91 503.017 1037.27 501.708C1039.63 500.369 1041.36 498.55 1042.47 496.251C1043.31 494.475 1043.73 491.856 1043.73 488.392V485.511ZM1078.57 487.825V481.669C1081.88 481.64 1084.14 481.509 1085.33 481.276C1086.56 481.043 1087.71 480.345 1088.78 479.18C1089.86 478.016 1090.4 476.561 1090.4 474.815C1090.4 472.69 1089.69 471.002 1088.26 469.75C1086.86 468.47 1085.04 467.829 1082.8 467.829C1078.38 467.829 1075.28 470.434 1073.5 475.644L1066.04 474.422C1068.37 465.719 1073.98 461.368 1082.89 461.368C1087.84 461.368 1091.71 462.721 1094.5 465.428C1097.33 468.135 1098.74 471.366 1098.74 475.12C1098.74 478.904 1096.9 481.916 1093.24 484.157C1095.56 485.409 1097.31 487.01 1098.47 488.96C1099.64 490.881 1100.22 493.165 1100.22 495.814C1100.22 499.976 1098.71 503.352 1095.68 505.943C1092.65 508.533 1088.42 509.828 1082.98 509.828C1072.41 509.828 1066.28 505.128 1064.6 495.727L1071.97 494.155C1072.64 497.124 1074 499.423 1076.03 501.053C1078.1 502.683 1080.46 503.498 1083.11 503.498C1085.76 503.498 1087.95 502.756 1089.7 501.271C1091.48 499.758 1092.36 497.837 1092.36 495.508C1092.36 493.704 1091.81 492.132 1090.7 490.793C1089.6 489.454 1088.42 488.625 1087.17 488.305C1085.92 487.956 1083.65 487.781 1080.36 487.781C1080.1 487.781 1079.5 487.795 1078.57 487.825ZM1110.82 485.598C1110.82 477.012 1113.21 470.653 1117.98 466.52C1121.97 463.085 1126.83 461.368 1132.57 461.368C1138.94 461.368 1144.15 463.464 1148.2 467.655C1152.24 471.817 1154.26 477.58 1154.26 484.943C1154.26 490.91 1153.36 495.61 1151.56 499.045C1149.78 502.45 1147.18 505.098 1143.74 506.99C1140.34 508.882 1136.61 509.828 1132.57 509.828C1126.08 509.828 1120.82 507.747 1116.81 503.585C1112.82 499.423 1110.82 493.427 1110.82 485.598ZM1118.9 485.598C1118.9 491.535 1120.2 495.989 1122.79 498.957C1125.38 501.897 1128.64 503.367 1132.57 503.367C1136.47 503.367 1139.71 501.882 1142.3 498.914C1144.89 495.945 1146.19 491.419 1146.19 485.336C1146.19 479.602 1144.88 475.266 1142.26 472.326C1139.67 469.357 1136.44 467.873 1132.57 467.873C1128.64 467.873 1125.38 469.343 1122.79 472.282C1120.2 475.222 1118.9 479.661 1118.9 485.598ZM1168.93 462.416H1187.05C1191.5 462.416 1194.8 462.794 1196.96 463.551C1199.14 464.279 1201 465.632 1202.54 467.611C1204.12 469.59 1204.9 471.962 1204.9 474.727C1204.9 476.939 1204.44 478.875 1203.5 480.534C1202.6 482.164 1201.23 483.532 1199.4 484.638C1201.58 485.365 1203.39 486.733 1204.81 488.741C1206.27 490.721 1207 493.078 1207 495.814C1206.71 500.209 1205.13 503.469 1202.28 505.593C1199.43 507.718 1195.28 508.78 1189.84 508.78H1168.93V462.416ZM1176.79 481.931H1185.17C1188.52 481.931 1190.81 481.756 1192.07 481.407C1193.32 481.058 1194.44 480.359 1195.43 479.311C1196.42 478.234 1196.91 476.954 1196.91 475.469C1196.91 473.025 1196.04 471.322 1194.29 470.361C1192.58 469.401 1189.62 468.921 1185.43 468.921H1176.79V481.931ZM1176.79 502.319H1187.13C1191.59 502.319 1194.64 501.81 1196.3 500.791C1197.96 499.743 1198.83 497.953 1198.92 495.421C1198.92 493.937 1198.44 492.569 1197.48 491.317C1196.52 490.037 1195.27 489.236 1193.73 488.916C1192.18 488.567 1189.71 488.392 1186.3 488.392H1176.79V502.319ZM1251.04 503.061C1248.13 505.535 1245.32 507.281 1242.62 508.3C1239.94 509.319 1237.06 509.828 1233.97 509.828C1228.88 509.828 1224.96 508.591 1222.23 506.117C1219.49 503.614 1218.12 500.427 1218.12 496.556C1218.12 494.286 1218.63 492.219 1219.65 490.357C1220.7 488.465 1222.05 486.951 1223.71 485.816C1225.4 484.681 1227.29 483.823 1229.39 483.241C1230.93 482.833 1233.26 482.44 1236.37 482.062C1242.72 481.305 1247.39 480.403 1250.39 479.355C1250.42 478.278 1250.43 477.594 1250.43 477.303C1250.43 474.102 1249.69 471.846 1248.21 470.536C1246.2 468.761 1243.21 467.873 1239.26 467.873C1235.56 467.873 1232.82 468.528 1231.05 469.838C1229.3 471.118 1228.01 473.403 1227.16 476.692L1219.48 475.644C1220.18 472.355 1221.33 469.707 1222.93 467.698C1224.53 465.661 1226.84 464.104 1229.87 463.027C1232.9 461.921 1236.4 461.368 1240.39 461.368C1244.35 461.368 1247.56 461.834 1250.04 462.765C1252.51 463.696 1254.33 464.875 1255.5 466.301C1256.66 467.698 1257.48 469.474 1257.94 471.628C1258.2 472.966 1258.33 475.382 1258.33 478.875V489.353C1258.33 496.658 1258.49 501.286 1258.81 503.236C1259.16 505.157 1259.83 507.005 1260.82 508.78H1252.61C1251.8 507.15 1251.28 505.244 1251.04 503.061ZM1250.39 485.511C1247.54 486.675 1243.26 487.664 1237.55 488.479C1234.32 488.945 1232.04 489.469 1230.7 490.051C1229.36 490.633 1228.33 491.492 1227.6 492.627C1226.87 493.733 1226.51 494.97 1226.51 496.338C1226.51 498.433 1227.29 500.18 1228.86 501.577C1230.47 502.974 1232.79 503.672 1235.85 503.672C1238.88 503.672 1241.57 503.017 1243.93 501.708C1246.28 500.369 1248.02 498.55 1249.12 496.251C1249.97 494.475 1250.39 491.856 1250.39 488.392V485.511ZM1275.97 462.416H1283.82V481.712H1305.61V462.416H1313.47V508.78H1305.61V488.217H1283.82V508.78H1275.97V462.416ZM1330.71 462.416H1338.57V497.779L1360.35 462.416H1368.82V508.78H1360.96V473.636L1339.18 508.78H1330.71V462.416ZM1417.76 493.849L1425.88 494.853C1424.6 499.598 1422.22 503.279 1418.76 505.899C1415.3 508.518 1410.87 509.828 1405.49 509.828C1398.71 509.828 1393.32 507.747 1389.33 503.585C1385.38 499.394 1383.4 493.529 1383.4 485.991C1383.4 478.191 1385.41 472.137 1389.42 467.829C1393.44 463.522 1398.65 461.368 1405.05 461.368C1411.25 461.368 1416.32 463.478 1420.24 467.698C1424.17 471.919 1426.14 477.856 1426.14 485.511C1426.14 485.976 1426.12 486.675 1426.09 487.606H1391.52C1391.81 492.7 1393.25 496.6 1395.84 499.307C1398.43 502.013 1401.66 503.367 1405.53 503.367C1408.41 503.367 1410.87 502.61 1412.91 501.097C1414.95 499.583 1416.56 497.167 1417.76 493.849ZM1391.95 481.145H1417.84C1417.49 477.245 1416.5 474.32 1414.87 472.37C1412.37 469.343 1409.13 467.829 1405.14 467.829C1401.53 467.829 1398.49 469.037 1396.01 471.453C1393.57 473.869 1392.22 477.099 1391.95 481.145ZM1443.2 508.78V499.83H1452.15V508.78C1452.15 512.069 1451.57 514.718 1450.41 516.726C1449.24 518.763 1447.39 520.335 1444.86 521.441L1442.68 518.079C1444.34 517.352 1445.56 516.275 1446.35 514.849C1447.13 513.452 1447.57 511.429 1447.66 508.78H1443.2ZM1502.79 444.778H1511.25V472.806C1515.13 472.806 1517.85 472.064 1519.42 470.58C1520.99 469.066 1523 465.457 1525.44 459.753C1527.22 455.562 1528.67 452.607 1529.81 450.89C1530.97 449.144 1532.62 447.689 1534.74 446.524C1536.87 445.331 1539.21 444.734 1541.77 444.734C1545.03 444.734 1546.75 444.764 1546.92 444.822V452.156C1546.63 452.156 1546.06 452.142 1545.22 452.113C1544.29 452.083 1543.72 452.069 1543.52 452.069C1540.81 452.069 1538.8 452.724 1537.49 454.034C1536.15 455.343 1534.63 458.137 1532.91 462.416C1530.76 467.829 1528.94 471.249 1527.45 472.675C1525.97 474.072 1524.19 475.193 1522.13 476.037C1526.26 477.172 1530.33 480.985 1534.35 487.475L1547.53 508.78H1537.01L1526.32 491.405C1523.38 486.602 1520.92 483.313 1518.94 481.538C1516.96 479.733 1514.4 478.831 1511.25 478.831V508.78H1502.79V444.778ZM1558.79 526.636L1557.92 519.258C1559.64 519.724 1561.14 519.957 1562.42 519.957C1564.16 519.957 1565.56 519.666 1566.61 519.083C1567.66 518.501 1568.51 517.686 1569.18 516.639C1569.68 515.853 1570.48 513.903 1571.58 510.789C1571.73 510.352 1571.96 509.712 1572.28 508.868L1554.69 462.416H1563.16L1572.81 489.265C1574.06 492.671 1575.18 496.251 1576.17 500.005C1577.07 496.396 1578.15 492.874 1579.4 489.44L1589.31 462.416H1597.17L1579.53 509.566C1577.64 514.66 1576.17 518.167 1575.12 520.088C1573.72 522.678 1572.12 524.57 1570.32 525.763C1568.51 526.986 1566.36 527.597 1563.86 527.597C1562.34 527.597 1560.66 527.277 1558.79 526.636ZM1611.13 462.416H1647.63V508.78H1639.82V468.921H1618.99V492.016C1618.99 497.4 1618.82 500.951 1618.47 502.668C1618.12 504.385 1617.16 505.884 1615.59 507.165C1614.01 508.446 1611.74 509.086 1608.78 509.086C1606.94 509.086 1604.83 508.969 1602.45 508.737V502.188H1605.89C1607.52 502.188 1608.69 502.028 1609.39 501.708C1610.09 501.358 1610.55 500.82 1610.78 500.092C1611.02 499.365 1611.13 496.993 1611.13 492.976V462.416ZM1664.74 462.416H1672.6V480.534H1682.55C1689.04 480.534 1694.03 481.8 1697.53 484.332C1701.05 486.835 1702.81 490.299 1702.81 494.722C1702.81 498.593 1701.34 501.911 1698.4 504.676C1695.49 507.412 1690.82 508.78 1684.39 508.78H1664.74V462.416ZM1672.6 502.319H1680.85C1685.83 502.319 1689.38 501.708 1691.5 500.485C1693.63 499.263 1694.69 497.357 1694.69 494.766C1694.69 492.758 1693.9 490.968 1692.33 489.396C1690.76 487.825 1687.28 487.039 1681.9 487.039H1672.6V502.319ZM1705.64 462.416H1743.32V468.921H1728.39V508.78H1720.57V468.921H1705.64V462.416ZM1756.89 526.636L1756.02 519.258C1757.73 519.724 1759.23 519.957 1760.51 519.957C1762.26 519.957 1763.66 519.666 1764.71 519.083C1765.75 518.501 1766.61 517.686 1767.28 516.639C1767.78 515.853 1768.58 513.903 1769.68 510.789C1769.83 510.352 1770.06 509.712 1770.38 508.868L1752.79 462.416H1761.26L1770.9 489.265C1772.16 492.671 1773.28 496.251 1774.27 500.005C1775.17 496.396 1776.25 492.874 1777.5 489.44L1787.41 462.416H1795.27L1777.63 509.566C1775.74 514.66 1774.27 518.167 1773.22 520.088C1771.82 522.678 1770.22 524.57 1768.42 525.763C1766.61 526.986 1764.46 527.597 1761.96 527.597C1760.44 527.597 1758.75 527.277 1756.89 526.636ZM1806.35 526.549V462.416H1813.51V468.441C1815.2 466.083 1817.1 464.322 1819.23 463.158C1821.35 461.965 1823.93 461.368 1826.96 461.368C1830.91 461.368 1834.41 462.387 1837.43 464.424C1840.46 466.461 1842.75 469.343 1844.29 473.068C1845.83 476.765 1846.6 480.825 1846.6 485.249C1846.6 489.993 1845.74 494.271 1844.03 498.084C1842.34 501.868 1839.86 504.778 1836.6 506.816C1833.37 508.824 1829.97 509.828 1826.39 509.828C1823.77 509.828 1821.41 509.275 1819.32 508.169C1817.25 507.063 1815.55 505.666 1814.21 503.978V526.549H1806.35ZM1813.47 485.86C1813.47 491.827 1814.67 496.236 1817.09 499.088C1819.51 501.941 1822.43 503.367 1825.86 503.367C1829.36 503.367 1832.34 501.897 1834.81 498.957C1837.32 495.989 1838.57 491.405 1838.57 485.205C1838.57 479.297 1837.35 474.873 1834.9 471.933C1832.49 468.994 1829.59 467.524 1826.21 467.524C1822.87 467.524 1819.9 469.095 1817.31 472.239C1814.75 475.353 1813.47 479.893 1813.47 485.86ZM1891.74 503.061C1888.83 505.535 1886.02 507.281 1883.31 508.3C1880.64 509.319 1877.75 509.828 1874.67 509.828C1869.58 509.828 1865.66 508.591 1862.92 506.117C1860.19 503.614 1858.82 500.427 1858.82 496.556C1858.82 494.286 1859.33 492.219 1860.35 490.357C1861.4 488.465 1862.75 486.951 1864.41 485.816C1866.1 484.681 1867.99 483.823 1870.08 483.241C1871.63 482.833 1873.96 482.44 1877.07 482.062C1883.41 481.305 1888.09 480.403 1891.08 479.355C1891.11 478.278 1891.13 477.594 1891.13 477.303C1891.13 474.102 1890.39 471.846 1888.9 470.536C1886.89 468.761 1883.91 467.873 1879.95 467.873C1876.25 467.873 1873.52 468.528 1871.74 469.838C1870 471.118 1868.7 473.403 1867.86 476.692L1860.17 475.644C1860.87 472.355 1862.02 469.707 1863.62 467.698C1865.22 465.661 1867.54 464.104 1870.56 463.027C1873.59 461.921 1877.1 461.368 1881.09 461.368C1885.04 461.368 1888.26 461.834 1890.73 462.765C1893.21 463.696 1895.03 464.875 1896.19 466.301C1897.36 467.698 1898.17 469.474 1898.64 471.628C1898.9 472.966 1899.03 475.382 1899.03 478.875V489.353C1899.03 496.658 1899.19 501.286 1899.51 503.236C1899.86 505.157 1900.53 507.005 1901.52 508.78H1893.31C1892.5 507.15 1891.97 505.244 1891.74 503.061ZM1891.08 485.511C1888.23 486.675 1883.95 487.664 1878.25 488.479C1875.02 488.945 1872.73 489.469 1871.39 490.051C1870.06 490.633 1869.02 491.492 1868.29 492.627C1867.57 493.733 1867.2 494.97 1867.2 496.338C1867.2 498.433 1867.99 500.18 1869.56 501.577C1871.16 502.974 1873.49 503.672 1876.55 503.672C1879.57 503.672 1882.27 503.017 1884.62 501.708C1886.98 500.369 1888.71 498.55 1889.82 496.251C1890.66 494.475 1891.08 491.856 1891.08 488.392V485.511ZM1173.09 604.227C1170.5 607.109 1167.68 609.277 1164.63 610.732C1161.57 612.159 1158.27 612.872 1154.71 612.872C1148.17 612.872 1142.97 610.66 1139.13 606.236C1136.01 602.627 1134.46 598.596 1134.46 594.143C1134.46 590.184 1135.72 586.619 1138.26 583.446C1140.82 580.245 1144.63 577.436 1149.69 575.02C1146.81 571.703 1144.89 569.01 1143.93 566.944C1142.97 564.877 1142.49 562.884 1142.49 560.963C1142.49 557.121 1143.99 553.788 1146.99 550.965C1150.01 548.113 1153.81 546.687 1158.38 546.687C1162.75 546.687 1166.31 548.025 1169.08 550.703C1171.87 553.381 1173.27 556.597 1173.27 560.352C1173.27 566.434 1169.24 571.63 1161.18 575.937L1172.66 590.563C1173.97 588.001 1174.99 585.033 1175.71 581.656L1183.88 583.403C1182.48 588.991 1180.59 593.59 1178.2 597.199C1181.14 601.099 1184.47 604.373 1188.2 607.022L1182.92 613.265C1179.75 611.227 1176.47 608.215 1173.09 604.227ZM1157.12 570.873C1160.52 568.865 1162.72 567.104 1163.71 565.59C1164.73 564.077 1165.24 562.403 1165.24 560.57C1165.24 558.387 1164.54 556.611 1163.14 555.244C1161.77 553.847 1160.06 553.148 1157.99 553.148C1155.86 553.148 1154.09 553.832 1152.66 555.2C1151.27 556.568 1150.57 558.241 1150.57 560.221C1150.57 561.21 1150.81 562.258 1151.31 563.364C1151.83 564.441 1152.6 565.59 1153.62 566.813L1157.12 570.873ZM1168.16 598.028L1153.75 580.172C1149.5 582.704 1146.64 585.062 1145.15 587.245C1143.67 589.398 1142.93 591.538 1142.93 593.662C1142.93 596.253 1143.96 598.945 1146.03 601.739C1148.09 604.533 1151.02 605.93 1154.8 605.93C1157.16 605.93 1159.59 605.203 1162.09 603.747C1164.63 602.263 1166.65 600.357 1168.16 598.028ZM1230.19 580.609C1230.19 569.985 1233.04 561.676 1238.75 555.68C1244.45 549.655 1251.81 546.643 1260.84 546.643C1266.74 546.643 1272.07 548.055 1276.81 550.878C1281.56 553.701 1285.17 557.645 1287.64 562.709C1290.14 567.744 1291.4 573.463 1291.4 579.866C1291.4 586.357 1290.09 592.163 1287.47 597.286C1284.85 602.408 1281.14 606.294 1276.33 608.943C1271.53 611.562 1266.35 612.872 1260.79 612.872C1254.77 612.872 1249.38 611.416 1244.64 608.506C1239.89 605.595 1236.3 601.623 1233.86 596.587C1231.41 591.552 1230.19 586.226 1230.19 580.609ZM1238.92 580.74C1238.92 588.453 1240.99 594.535 1245.12 598.989C1249.28 603.413 1254.49 605.625 1260.75 605.625C1267.12 605.625 1272.36 603.383 1276.47 598.901C1280.6 594.419 1282.66 588.06 1282.66 579.823C1282.66 574.613 1281.78 570.073 1280 566.202C1278.26 562.302 1275.68 559.289 1272.27 557.164C1268.9 555.011 1265.1 553.934 1260.88 553.934C1254.88 553.934 1249.72 556 1245.38 560.133C1241.07 564.237 1238.92 571.106 1238.92 580.74ZM1340.68 546.25L1347.62 546.337C1347.3 549.452 1346.6 551.62 1345.53 552.842C1344.48 554.065 1343.11 554.851 1341.42 555.2C1339.76 555.549 1336.49 555.724 1331.6 555.724C1325.11 555.724 1320.69 556.35 1318.33 557.601C1315.97 558.853 1314.27 560.861 1313.22 563.626C1312.2 566.362 1311.63 569.898 1311.52 574.235C1313.5 571.295 1315.81 569.098 1318.46 567.642C1321.11 566.158 1324.09 565.416 1327.41 565.416C1333.49 565.416 1338.53 567.511 1342.51 571.703C1346.5 575.865 1348.5 581.511 1348.5 588.642C1348.5 594.055 1347.49 598.494 1345.48 601.957C1343.47 605.421 1341.09 608.098 1338.32 609.99C1335.59 611.882 1331.85 612.828 1327.1 612.828C1321.6 612.828 1317.32 611.577 1314.27 609.073C1311.21 606.541 1308.87 603.311 1307.24 599.381C1305.61 595.452 1304.79 588.613 1304.79 578.862C1304.79 566.609 1306.86 558.358 1310.99 554.108C1315.16 549.859 1321.54 547.734 1330.16 547.734C1335.51 547.734 1338.56 547.647 1339.28 547.472C1340.01 547.298 1340.48 546.89 1340.68 546.25ZM1340.29 588.423C1340.29 583.592 1339.14 579.634 1336.84 576.549C1334.57 573.463 1331.35 571.921 1327.19 571.921C1322.85 571.921 1319.51 573.551 1317.15 576.81C1314.79 580.07 1313.61 584.421 1313.61 589.864C1313.61 595.249 1314.91 599.367 1317.5 602.219C1320.12 605.072 1323.33 606.498 1327.15 606.498C1331.05 606.498 1334.2 604.853 1336.62 601.564C1339.07 598.246 1340.29 593.866 1340.29 588.423ZM1363.6 565.416H1371.45V605.319H1389.35V565.416H1397.21V605.319H1415.16V565.416H1422.97V605.319H1428.17V624.921H1421.66V611.78H1363.6V565.416ZM1442.31 565.416H1450.16V600.779L1471.95 565.416H1480.42V611.78H1472.56V576.636L1450.78 611.78H1442.31V565.416ZM1497.66 565.416H1505.52V584.712H1527.3V565.416H1535.16V611.78H1527.3V591.217H1505.52V611.78H1497.66V565.416ZM1582.65 606.061C1579.74 608.535 1576.94 610.281 1574.23 611.3C1571.55 612.319 1568.67 612.828 1565.58 612.828C1560.49 612.828 1556.58 611.591 1553.84 609.117C1551.1 606.614 1549.74 603.427 1549.74 599.556C1549.74 597.286 1550.25 595.219 1551.26 593.357C1552.31 591.465 1553.67 589.951 1555.32 588.816C1557.01 587.681 1558.9 586.823 1561 586.241C1562.54 585.833 1564.87 585.44 1567.99 585.062C1574.33 584.305 1579 583.403 1582 582.355C1582.03 581.278 1582.04 580.594 1582.04 580.303C1582.04 577.102 1581.3 574.846 1579.82 573.536C1577.81 571.761 1574.83 570.873 1570.87 570.873C1567.17 570.873 1564.43 571.528 1562.66 572.838C1560.91 574.118 1559.62 576.403 1558.77 579.692L1551.09 578.644C1551.79 575.355 1552.94 572.707 1554.54 570.698C1556.14 568.661 1558.45 567.104 1561.48 566.027C1564.51 564.921 1568.01 564.368 1572 564.368C1575.96 564.368 1579.18 564.834 1581.65 565.765C1584.12 566.696 1585.94 567.875 1587.11 569.301C1588.27 570.698 1589.09 572.474 1589.55 574.628C1589.81 575.966 1589.95 578.382 1589.95 581.875V592.353C1589.95 599.658 1590.11 604.286 1590.43 606.236C1590.77 608.157 1591.44 610.005 1592.43 611.78H1584.23C1583.41 610.15 1582.89 608.244 1582.65 606.061ZM1582 588.511C1579.15 589.675 1574.87 590.664 1569.16 591.479C1565.93 591.945 1563.65 592.469 1562.31 593.051C1560.97 593.633 1559.94 594.492 1559.21 595.627C1558.48 596.733 1558.12 597.97 1558.12 599.338C1558.12 601.433 1558.9 603.18 1560.48 604.577C1562.08 605.974 1564.41 606.672 1567.46 606.672C1570.49 606.672 1573.18 606.017 1575.54 604.708C1577.9 603.369 1579.63 601.55 1580.73 599.251C1581.58 597.475 1582 594.856 1582 591.392V588.511Z" fill="#5B604A"/>
</svg>
