<svg width="2007" height="635" viewBox="0 0 2007 635" fill="none" xmlns="http://www.w3.org/2000/svg">
<path d="M363.482 2.76562C384.003 2.64459 401.846 2.76738 417.077 4.25098C432.301 5.7339 445.138 8.593 455.565 14.0781C476.795 25.2459 487.076 46.7375 488.824 85.873C491.757 151.49 510.449 220.581 524.58 285.953L525.29 289.236L521.932 289.241L484.095 289.295L481.9 289.298L481.438 287.152C474.587 255.339 468.239 226.262 462.425 194.604C455.634 207.143 450.086 215.707 439.705 228.717L439.684 228.743L439.661 228.77L438.395 230.277L438.39 230.282L438.385 230.288C422.88 248.529 406.894 261.76 388.085 271.377C369.297 280.983 347.823 286.915 321.434 290.73L318.32 291.181L318.331 288.036L318.427 258.994L318.436 256.511L320.91 256.299C389.569 250.443 441.696 189.872 449.632 136.306C450.841 128.144 449.571 113.703 447.535 98.6709C445.514 83.7474 442.816 68.7355 441.332 59.4932V59.4922C439.281 46.7137 427.642 40.1867 411.672 36.9863C395.867 33.819 377.255 34.2261 363.554 34.2207L360.847 34.2197L360.841 31.5127L360.784 5.48535L360.778 2.78125L363.482 2.76562Z" fill="#5B604A" stroke="#5B604A" stroke-width="5.4281"/>
<path d="M714.142 2.76465C738.379 2.67849 762.629 2.75429 786.866 2.99121L789.553 3.01758L789.554 5.7041L789.58 287.86V290.56L786.882 290.575L768.383 290.683H768.359L748.463 290.629L745.757 290.622L745.756 287.916L745.651 34.707L693.812 34.5752L691.102 34.5684L691.104 31.8584L691.131 5.64844L691.134 2.95996L693.821 2.9375L714.128 2.76465H714.142Z" fill="#5B604A" stroke="#5B604A" stroke-width="5.4281"/>
<path d="M1024.04 4.81055C1028.57 23.6575 1039.45 53.4561 1046.67 74.6396L1048.07 78.7549V78.7568C1066.56 133.928 1085.66 188.953 1105.36 243.834C1127.08 233.099 1142.54 221.491 1154.25 207.712C1166.45 193.362 1174.72 176.504 1181.7 155.469L1182.45 153.161C1198.09 104.699 1200.02 55.6576 1202.97 5.29688L1203.11 2.74219L1205.67 2.74121L1245.06 2.73047L1247.82 2.72949L1247.77 5.49023C1247.1 45.3653 1242.2 90.7117 1232.78 129.706C1229.18 148.681 1221.44 171.348 1210.3 192.562C1199.17 213.778 1184.54 233.732 1167.08 247.058C1106.68 293.146 1033.58 295.04 958.746 294.825L956.021 294.817L956.04 292.093L956.225 264.526L956.243 261.828L958.94 261.83C1004.44 261.862 1022.3 262.126 1065.98 254.8C1037.94 172.425 1007.15 88.8478 978.071 6.49902L976.799 2.89551L980.62 2.88086L1021.39 2.73047L1023.54 2.72266L1024.04 4.81055Z" fill="#5B604A" stroke="#5B604A" stroke-width="5.4281"/>
<path d="M703.01 371.177L1246.06 371.177" stroke="#C2A27C" stroke-width="5.07342"/>
<path d="M640.151 397.491C654.685 397.491 666.467 385.709 666.467 371.176C666.467 356.642 654.685 344.86 640.151 344.86C625.618 344.86 613.836 356.642 613.836 371.176C613.836 385.709 625.618 397.491 640.151 397.491Z" fill="#5B604A"/>
<path d="M117.918 373.712H34.2383V368.638H117.918V373.712ZM577.187 373.712H223.802V368.638H577.187V373.712Z" fill="#C2A27C"/>
<path d="M86.8545 2.89355C120.579 2.68853 154.305 2.67713 188.03 2.85938L190.731 2.87305L190.729 5.5752L190.433 413.955L190.431 416.698L187.688 416.667L149.696 416.234L147.013 416.203V35.9287L87.2764 35.8203L84.6729 35.8164L84.5693 33.2148C84.2084 24.1337 84.2581 14.6393 84.1572 5.6377L84.127 2.91016L86.8545 2.89355Z" fill="#5B604A" stroke="#5B604A" stroke-width="5.4281"/>
<path d="M98.78 525.125C106.44 523.813 113.887 523.157 121.124 523.157C135.173 523.157 144.885 525.76 150.26 530.965C155.634 536.17 158.321 544.147 158.321 554.896V591.268H146.197V558.133C146.197 551.404 145.414 546.474 143.848 543.343C142.283 540.169 139.574 537.778 135.723 536.17C131.915 534.52 126.35 533.694 119.029 533.694C113.274 533.694 106.863 534.287 99.7957 535.472L98.78 525.125ZM111.666 553.309V591.268H99.5417V553.309H111.666ZM191.258 523.919H228.582V540.677C228.582 545.416 228.138 549.267 227.249 552.229C226.36 555.149 224.816 558.112 222.615 561.116L219.187 565.687C215.76 570.299 214.046 575.229 214.046 580.477V591.268H201.922V582.19C201.922 576.731 202.451 572.627 203.509 569.876C204.609 567.125 206.196 564.417 208.269 561.751L212.078 556.927C213.94 554.557 215.125 552.42 215.633 550.516C216.183 548.611 216.458 546.157 216.458 543.152V534.075H179.197V498.211H191.258V523.919ZM265.581 523.919V558.768H253.203V523.919H265.581ZM292.805 525.125C300.465 523.813 307.912 523.157 315.149 523.157C329.198 523.157 338.91 525.76 344.285 530.965C349.659 536.17 352.346 544.147 352.346 554.896V591.268H340.222V558.133C340.222 551.404 339.439 546.474 337.873 543.343C336.308 540.169 333.599 537.778 329.748 536.17C325.94 534.52 320.375 533.694 313.054 533.694C307.299 533.694 300.888 534.287 293.821 535.472L292.805 525.125ZM305.691 553.309V591.268H293.567V553.309H305.691ZM378.935 523.919H433.906V540.677C433.906 545.459 433.461 549.31 432.573 552.229C431.726 555.107 430.182 558.069 427.939 561.116L424.575 565.687C421.105 570.341 419.37 575.271 419.37 580.477V591.268H407.246V582.19C407.246 577.578 407.648 573.854 408.452 571.019C409.298 568.141 411.033 565.052 413.657 561.751L417.402 556.927C419.222 554.599 420.406 552.505 420.957 550.643C421.549 548.738 421.845 546.242 421.845 543.152V534.075H378.935V523.919ZM379.951 617.166V553.309H391.567V617.166H379.951ZM495.209 524.554C501.726 523.623 507.693 523.157 513.109 523.157C525.72 523.157 534.966 525.569 540.849 530.394C546.731 535.175 549.672 543.343 549.672 554.896V617.166H537.548V558.133C537.548 550.812 536.596 545.607 534.691 542.518C532.829 539.428 529.952 537.186 526.059 535.789C522.165 534.393 517.637 533.694 512.475 533.694C507.904 533.694 502.488 534.118 496.225 534.964L495.209 524.554ZM588.956 523.919V591.268H576.578V523.919H588.956ZM642.967 591.268H610.467V581.111H630.843V548.104C630.843 544.464 630.568 541.714 630.018 539.852C629.468 537.947 628.283 536.424 626.463 535.281C624.686 534.139 622.295 533.567 619.29 533.567C616.709 533.567 614.403 533.779 612.371 534.202L611.483 524.554C614.318 523.623 617.788 523.157 621.893 523.157C627.648 523.157 632.049 524.236 635.096 526.395C638.143 528.553 640.217 531.219 641.317 534.393C642.417 537.524 642.967 541.967 642.967 547.723V591.268ZM682.505 523.919V558.768H670.128V523.919H682.505ZM768.826 591.268H756.702V554.769C756.702 549.817 756.152 545.924 755.052 543.089C753.951 540.254 751.751 537.99 748.45 536.297C745.149 534.562 740.41 533.694 734.231 533.694C730.634 533.694 726.614 533.991 722.171 534.583V591.268H710.047V525.379C719.103 523.898 727.418 523.157 734.993 523.157C743.287 523.157 749.952 524.384 754.988 526.839C760.066 529.251 763.642 532.488 765.716 536.551C767.789 540.613 768.826 546.284 768.826 553.562V591.268ZM832.351 589.681L834.445 580.604C836.646 581.365 839.037 581.746 841.618 581.746C844.538 581.746 846.548 581.111 847.649 579.842C848.749 578.53 849.299 576.181 849.299 572.796V533.948C845.66 533.948 841.195 534.329 835.905 535.091L834.826 524.998C844.475 523.771 854.271 523.157 864.216 523.157C874.288 523.157 882.032 524.004 887.448 525.696C892.865 527.389 896.991 530.499 899.826 535.027C902.704 539.513 904.143 546.136 904.143 554.896V591.268H892.019V558.133C892.019 551.574 891.511 546.771 890.495 543.724C889.522 540.677 887.364 538.201 884.021 536.297C880.678 534.393 875.155 533.44 867.453 533.44L861.359 533.567V574.383C861.359 578.615 860.957 581.852 860.153 584.095C859.392 586.338 857.762 588.178 855.266 589.617C852.811 591.056 849.13 591.775 844.221 591.775C840.243 591.775 836.286 591.077 832.351 589.681ZM943.364 523.919V591.268H930.986V523.919H943.364ZM1017.94 581.111H1028.67V591.268H964.24V581.111H1005.82V558.133C1005.82 551.87 1005.12 547.173 1003.72 544.041C1002.33 540.867 999.787 538.349 996.105 536.487C992.466 534.625 986.774 533.694 979.03 533.694C976.279 533.694 972.026 533.991 966.271 534.583L965.255 524.554C970.968 523.623 977.041 523.157 983.473 523.157C995.576 523.157 1004.34 525.781 1009.75 531.028C1015.21 536.276 1017.94 544.231 1017.94 554.896V581.111ZM1041.86 524.554C1048.38 523.623 1054.37 523.157 1059.83 523.157C1073.45 523.157 1082.93 525.802 1088.27 531.092C1093.64 536.339 1096.33 544.274 1096.33 554.896V591.268H1084.27V558.133C1084.27 551.997 1083.61 547.363 1082.3 544.231C1080.99 541.1 1078.47 538.561 1074.74 536.614C1071.02 534.668 1065.82 533.694 1059.13 533.694C1054.6 533.694 1049.18 534.118 1042.88 534.964L1041.86 524.554ZM1115.93 589.681L1118.03 580.604C1120.23 581.365 1122.62 581.746 1125.2 581.746C1128.12 581.746 1130.13 581.111 1131.23 579.842C1132.33 578.53 1132.88 576.181 1132.88 572.796V533.948C1129.24 533.948 1124.78 534.329 1119.49 535.091L1118.41 524.998C1128.06 523.771 1137.85 523.157 1147.8 523.157C1157.87 523.157 1165.61 524.004 1171.03 525.696C1176.45 527.389 1180.57 530.499 1183.41 535.027C1186.29 539.513 1187.73 546.136 1187.73 554.896V591.268H1175.6V558.133C1175.6 551.574 1175.09 546.771 1174.08 543.724C1173.1 540.677 1170.95 538.201 1167.6 536.297C1164.26 534.393 1158.74 533.44 1151.04 533.44L1144.94 533.567V574.383C1144.94 578.615 1144.54 581.852 1143.74 584.095C1142.97 586.338 1141.35 588.178 1138.85 589.617C1136.39 591.056 1132.71 591.775 1127.8 591.775C1123.83 591.775 1119.87 591.077 1115.93 589.681Z" fill="#5B604A"/>
<path d="M1705.74 62.9089C1714.12 62.0783 1724.29 63.9843 1732.02 67.2859C1746.18 73.4421 1757.26 85.0333 1762.77 99.448C1768.48 114.006 1768.06 130.258 1761.58 144.494C1754.92 159.254 1743.67 168.634 1728.79 174.385C1728.19 213.945 1729.12 308.078 1728.66 347.664C1728.53 358.349 1728.03 372.522 1729 382.957C1729.52 389.202 1730.96 395.338 1733.24 401.174C1743.94 428.054 1769.63 437.627 1795.93 426.29C1825.02 413.739 1843.85 386.084 1855.71 357.745L1831.84 357.157C1847.52 338.175 1862.69 318.778 1877.32 298.987C1889.73 321.464 1894.36 355.432 1894.55 380.977C1888.36 375.713 1882.56 370.701 1876.03 365.85C1862.62 409.853 1841.04 447.196 1798.54 469.01C1789.46 473.671 1780.06 476.887 1770.91 481.302C1745.71 493.461 1728.26 508.424 1712.62 531.309L1709.48 536.05C1682.1 494.535 1658.08 486.957 1616.53 467.398C1577.52 449.039 1554.37 405.921 1542.46 365.521C1536.17 370.551 1529.95 376.019 1523.82 381.278C1523.7 351.116 1528.3 326.491 1540.45 298.67C1554.03 318.259 1570.34 338.663 1585.4 357.151L1562.15 357.642C1575.03 389.714 1603.77 430.503 1642.39 430.584C1653.94 430.694 1665.03 426.048 1673.05 417.735C1685.33 405.243 1689.09 389.082 1689.05 372.083C1689.02 359.02 1689.1 345.94 1689.11 332.877L1689.07 204.584L1688.99 204.638L1689.02 174.499C1683.24 171.811 1679.63 170.049 1674.54 166.143C1662.41 156.811 1654.48 143.036 1652.51 127.853C1650.58 112.297 1655 96.6196 1664.76 84.3542C1675.43 70.9681 1689.02 64.7168 1705.74 62.9089ZM1738.14 117.307C1736.63 101.588 1722.68 90.0567 1706.96 91.5398C1691.21 93.0248 1679.65 107.007 1681.16 122.756C1682.66 138.504 1696.66 150.044 1712.41 148.517C1728.13 146.994 1739.63 133.027 1738.14 117.307Z" fill="#5B604A"/>
<path d="M1907.36 481.786C1923.34 481.069 1935.94 481.823 1951.78 483.078C1957.41 494.975 1963.76 506.492 1969.38 518.475C1892.65 502.433 1822.88 514.311 1756.65 556.756C1741.64 566.608 1730.42 576.938 1718.71 590.341C1719.72 576.717 1730.84 558.967 1740.05 549.323C1782.52 504.876 1847.7 484.504 1907.36 481.786Z" fill="#C2A27C"/>
<path d="M1487.56 481.792C1544.19 479.153 1606.32 494.02 1653.05 526.864C1673.73 541.394 1696.74 564.809 1701.24 590.74C1693.04 582.308 1688.48 577.091 1679.16 569.211C1673.39 564.551 1667.45 560.118 1661.34 555.912C1614.57 524.152 1552.24 508.605 1496.05 511.863C1479.62 512.812 1466.29 515.169 1450.17 518.243C1454.8 507.827 1462.68 492.985 1468.1 482.968C1474.58 482.466 1481.07 482.074 1487.56 481.792Z" fill="#C2A27C"/>
<path d="M1423.57 577.796C1455.21 563.131 1498.41 559.543 1532.75 561.11C1591.86 563.811 1650.11 583.949 1697.81 619.034C1698.35 619.439 1699.78 623.48 1700.12 624.435C1703.56 625.004 1715.12 624.686 1719.47 624.704C1719.79 628.225 1720.01 631.115 1720.1 634.66C1710.7 634.832 1699.09 635.003 1689.8 634.134C1689.63 630.08 1689.72 625.396 1689.71 621.294C1677.48 614.883 1657.14 607.609 1643.89 603.347C1580.77 583.594 1513.8 579.51 1448.74 591.45C1436.49 593.593 1424.5 596.593 1412.4 599.502C1415.41 593.324 1419.99 583.264 1423.57 577.796Z" fill="#C2A27C"/>
<path d="M1719.46 624.703C1719.86 621.127 1719.56 620.699 1722.86 618.231C1736.88 607.73 1752.98 598.031 1768.8 590.604C1820.6 565.879 1878.32 556.26 1935.35 562.836C1953.38 564.863 1980.1 570.251 1996.01 578.242C1999.67 585.338 2003.25 592.478 2006.75 599.654C1994.31 596.623 1982.23 593.617 1969.6 591.406C1904.55 579.527 1837.58 583.691 1774.5 603.548C1761.4 607.785 1741.77 614.821 1729.51 621.072L1729.51 634.176C1726.37 634.378 1723.26 634.604 1720.1 634.659C1720.01 631.114 1719.79 628.224 1719.46 624.703Z" fill="#C2A27C"/>
<path d="M1899 524.648C1924.92 523.007 1951.61 527.691 1976.06 536.012C1980.06 543.06 1984.36 552.275 1988.04 559.653C1923.22 540.898 1857.14 544.419 1793.75 566.97C1765.69 577.147 1748.81 586.778 1724.28 603.041C1764.25 552.697 1836.37 527.225 1899 524.648Z" fill="#C2A27C"/>
<path d="M1504.3 524.648C1515.2 524.25 1526.11 524.562 1536.97 525.585C1594.23 530.942 1657.49 557.712 1694.76 602.6C1688.33 598.822 1681.89 594.285 1675.39 590.379C1663.94 583.6 1652.04 577.612 1639.78 572.444C1588.26 550.94 1532.04 543.176 1476.62 549.918C1459.77 552.128 1448.17 555.036 1431.74 559.335C1435.48 551.589 1439.27 543.488 1443.34 535.939C1463.15 528.064 1483.23 525.615 1504.3 524.648Z" fill="#C2A27C"/>
<path d="M1706.28 3.0809C1716.25 0.507384 1726.4 6.55695 1728.89 16.5498C1731.37 26.542 1725.23 36.6438 1715.22 39.0403C1705.33 41.4069 1695.38 35.361 1692.93 25.4925C1690.47 15.6246 1696.43 5.62258 1706.28 3.0809Z" fill="#5B604A"/>
<path d="M1450.82 255.253C1460.47 253.859 1469.41 260.587 1470.74 270.246C1472.07 279.904 1465.28 288.798 1455.61 290.062C1446.04 291.314 1437.25 284.604 1435.93 275.038C1434.61 265.471 1441.26 256.635 1450.82 255.253Z" fill="#5B604A"/>
<path d="M1962.61 255.322C1972.19 253.776 1981.21 260.307 1982.73 269.895C1984.25 279.483 1977.7 288.482 1968.1 289.977C1958.55 291.466 1949.59 284.941 1948.08 275.389C1946.56 265.838 1953.07 256.862 1962.61 255.322Z" fill="#5B604A"/>
<path d="M1980.29 302.552C1974.1 363.313 1947.92 418.159 1908.42 460.409C1888.27 462.486 1867.83 466.809 1848.03 473.29C1903.4 434.628 1941.86 373.41 1950.07 302.958C1954.51 305.119 1959.5 306.332 1964.78 306.332C1970.37 306.332 1975.65 304.966 1980.29 302.552ZM1469.02 302.459C1477.01 372.265 1514.69 433.049 1569.11 471.873C1549.83 465.901 1530 461.968 1510.48 460.146C1471.24 418.058 1445.19 363.515 1438.91 303.097C1443.28 305.17 1448.17 306.332 1453.33 306.332C1459 306.332 1464.34 304.93 1469.02 302.459ZM1680.48 4.02637C1677.56 9.01546 1675.88 14.8221 1675.88 21.0205C1675.88 25.7914 1676.88 30.3296 1678.67 34.4424C1569.87 48.3037 1483.63 134.362 1469.48 243.066C1464.68 240.443 1459.18 238.951 1453.33 238.951C1448.35 238.951 1443.63 240.031 1439.38 241.968C1454.37 116.59 1554.61 17.4041 1680.48 4.02637ZM1738.67 4.02637C1864.71 17.4225 1965.06 116.868 1979.83 242.495C1975.3 240.228 1970.19 238.951 1964.78 238.951C1959.32 238.951 1954.16 240.25 1949.6 242.555C1935.25 134.092 1849.11 48.2817 1740.48 34.4424C1742.27 30.3296 1743.27 25.7915 1743.27 21.0205C1743.27 14.8219 1741.59 9.01556 1738.67 4.02637Z" fill="#C2A27C"/>
</svg>
