<svg width="595" height="633" viewBox="0 0 595 633" fill="none" xmlns="http://www.w3.org/2000/svg">
<path d="M293.337 60.4206C301.724 59.59 311.887 61.4961 319.624 64.7976C333.778 70.9538 344.856 82.545 350.372 96.9597C356.079 111.517 355.655 127.769 349.178 142.006C342.523 156.766 331.272 166.146 316.388 171.897C315.785 211.457 316.719 305.59 316.255 345.176C316.129 355.861 315.632 370.034 316.6 380.468C317.124 386.713 318.556 392.849 320.836 398.685C331.543 425.566 357.233 435.139 383.526 423.801C412.623 411.25 431.451 383.595 443.305 355.257L419.439 354.669C435.118 335.687 450.286 316.29 464.924 296.499C477.328 318.976 481.956 352.943 482.148 378.489C475.956 373.225 470.161 368.212 463.631 363.362C450.22 407.365 428.64 444.708 386.138 466.522C377.062 471.183 367.661 474.399 358.512 478.814C333.307 490.973 315.864 505.936 300.218 528.821L297.083 533.561C269.696 492.047 245.681 484.468 204.128 464.91C165.121 446.551 141.973 403.433 130.064 363.033C123.766 368.063 117.55 373.531 111.42 378.79C111.296 348.628 115.904 324.003 128.05 296.181C141.626 315.771 157.935 336.174 173 354.663L149.748 355.154C162.625 387.225 191.369 428.015 229.989 428.095C241.541 428.206 252.629 423.559 260.652 415.247C272.928 402.755 276.685 386.594 276.651 369.594C276.624 356.532 276.697 343.451 276.709 330.388L276.666 202.095L276.593 202.15L276.622 172.01C270.844 169.322 267.229 167.56 262.144 163.655C250.008 154.323 242.08 140.547 240.11 125.365C238.184 109.809 242.6 94.1313 252.361 81.8659C263.027 68.4798 276.616 62.2285 293.337 60.4206ZM325.736 114.819C324.231 99.0997 310.276 87.5684 294.557 89.0515C278.807 90.5366 267.249 104.519 268.755 120.267C270.261 136.016 284.261 147.556 300.006 146.029C315.725 144.506 327.234 130.539 325.736 114.819Z" fill="#5B604A"/>
<path d="M494.962 479.297C510.937 478.581 523.538 479.334 539.378 480.589C545.011 492.487 551.355 504.004 556.976 515.987C480.248 499.944 410.482 511.823 344.249 554.268C329.241 564.12 318.024 574.45 306.311 587.853C307.315 574.229 318.44 556.478 327.649 546.835C370.119 502.388 435.299 482.016 494.962 479.297Z" fill="#C2A27C"/>
<path d="M75.1619 479.304C131.791 476.665 193.915 491.532 240.654 524.376C261.332 538.906 284.336 562.32 288.842 588.251C280.639 579.82 276.084 574.603 266.756 566.723C260.99 562.063 255.048 557.63 248.943 553.424C202.167 521.663 139.843 506.117 83.6496 509.374C67.216 510.323 53.8916 512.681 37.7715 515.755C42.3962 505.339 50.2809 490.497 55.7016 480.48C62.181 479.978 68.669 479.586 75.1619 479.304Z" fill="#C2A27C"/>
<path d="M11.1746 575.307C42.8093 560.643 86.0056 557.055 120.349 558.622C179.462 561.322 237.711 581.461 285.408 616.546C285.953 616.95 287.38 620.992 287.723 621.947C291.158 622.516 302.724 622.198 307.065 622.216C307.39 625.737 307.61 628.627 307.702 632.172C298.297 632.344 286.694 632.515 277.403 631.646C277.233 627.592 277.324 622.908 277.31 618.806C265.075 612.395 244.738 605.121 231.49 600.859C168.373 581.106 101.395 577.022 36.3446 588.962C24.0863 591.105 12.0967 594.105 0 597.014C3.00948 590.835 7.59197 580.775 11.1746 575.307Z" fill="#C2A27C"/>
<path d="M307.064 622.215C307.462 618.639 307.162 618.211 310.463 615.743C324.485 605.242 340.576 595.543 356.398 588.116C408.199 563.391 465.921 553.772 522.945 560.348C540.977 562.375 567.704 567.763 583.612 575.753C587.273 582.85 590.849 589.989 594.352 597.166C581.91 594.135 569.829 591.128 557.197 588.918C492.146 577.039 425.178 581.203 362.098 601.06C348.995 605.297 329.371 612.332 317.106 618.584L317.112 631.687C313.965 631.889 310.855 632.116 307.701 632.171C307.609 628.626 307.389 625.736 307.064 622.215Z" fill="#C2A27C"/>
<path d="M486.598 522.159C512.517 520.518 539.207 525.203 563.662 533.524C567.661 540.571 571.959 549.787 575.639 557.165C510.821 538.41 444.741 541.931 381.349 564.482C353.293 574.658 336.412 584.29 311.883 600.553C351.848 550.209 423.971 524.737 486.598 522.159Z" fill="#C2A27C"/>
<path d="M91.8999 522.159C102.8 521.761 113.713 522.074 124.572 523.096C181.832 528.454 245.086 555.224 282.357 600.112C275.926 596.334 269.493 591.797 262.988 587.89C251.537 581.112 239.639 575.124 227.375 569.956C175.857 548.452 119.638 540.688 64.2194 547.429C47.3694 549.64 35.7675 552.548 19.3418 556.847C23.083 549.101 26.8658 541 30.9382 533.45C50.7536 525.576 70.8256 523.127 91.8999 522.159Z" fill="#C2A27C"/>
<path d="M293.875 0.592619C303.85 -1.9809 314.002 4.06867 316.488 14.0615C318.974 24.0537 312.832 34.1555 302.821 36.552C292.932 38.9186 282.983 32.8727 280.527 23.0042C278.072 13.1363 284.03 3.1343 293.875 0.592619Z" fill="#5B604A"/>
<path d="M38.4188 252.765C48.0681 251.37 57.0078 258.099 58.3371 267.757C59.667 277.415 52.8778 286.31 43.2107 287.573C33.6355 288.826 24.8447 282.115 23.5276 272.549C22.2105 262.983 28.8613 254.146 38.4188 252.765Z" fill="#5B604A"/>
<path d="M550.212 252.834C559.794 251.288 568.813 257.819 570.332 267.406C571.85 276.994 565.299 285.994 555.704 287.489C546.152 288.978 537.194 282.453 535.675 272.901C534.163 263.35 540.666 254.374 550.212 252.834Z" fill="#5B604A"/>
<path d="M567.894 300.063C561.699 360.825 535.515 415.67 496.023 457.921C475.865 459.998 455.427 464.321 435.633 470.802C491.004 432.14 529.457 370.921 537.668 300.47C542.113 302.63 547.104 303.844 552.378 303.844C557.974 303.844 563.25 302.477 567.894 300.063ZM56.6211 299.971C64.6108 369.777 102.287 430.56 156.708 469.385C137.425 463.413 117.601 459.479 98.0791 457.658C58.8427 415.57 32.7933 361.026 26.5117 300.608C30.8831 302.682 35.7709 303.844 40.9307 303.844C46.5969 303.844 51.9348 302.442 56.6211 299.971ZM268.08 1.53809C265.16 6.52718 263.484 12.3338 263.484 18.5322C263.484 23.3031 264.478 27.8414 266.267 31.9541C157.472 45.8154 71.2257 131.873 57.0771 240.578C52.2827 237.955 46.7811 236.463 40.9307 236.463C35.9541 236.463 31.2299 237.543 26.9785 239.479C41.9727 114.102 142.213 14.9158 268.08 1.53809ZM326.269 1.53809C452.312 14.9342 552.656 114.38 567.432 240.007C562.901 237.74 557.789 236.463 552.378 236.463C546.919 236.463 541.764 237.762 537.203 240.066C522.851 131.603 436.706 45.7934 328.082 31.9541C329.871 27.8413 330.865 23.3032 330.865 18.5322C330.865 12.3336 329.189 6.52728 326.269 1.53809Z" fill="#C2A27C"/>
</svg>
