<svg width="1945" height="633" viewBox="0 0 1945 633" fill="none" xmlns="http://www.w3.org/2000/svg">
<path d="M1651.37 60.4187C1642.99 59.588 1632.83 61.4942 1625.09 64.7956C1610.93 70.9518 1599.86 82.5432 1594.34 96.9577C1588.63 111.516 1589.06 127.767 1595.53 142.004C1602.19 156.764 1613.44 166.144 1628.32 171.895C1628.93 211.455 1627.99 305.589 1628.46 345.175C1628.58 355.86 1629.08 370.032 1628.11 380.467C1627.59 386.712 1626.16 392.848 1623.87 398.684C1613.17 425.565 1587.48 435.138 1561.19 423.801C1532.09 411.249 1513.26 383.594 1501.41 355.256L1525.27 354.667C1509.59 335.685 1494.43 316.288 1479.79 296.497C1467.38 318.974 1462.76 352.942 1462.56 378.488C1468.76 373.224 1474.55 368.211 1481.08 363.361C1494.49 407.364 1516.07 444.707 1558.57 466.521C1567.65 471.182 1577.05 474.397 1586.2 478.812C1611.4 490.971 1628.85 505.934 1644.49 528.819L1647.63 533.559C1675.02 492.045 1699.03 484.467 1740.58 464.909C1779.59 446.55 1802.74 403.432 1814.65 363.032C1820.95 368.062 1827.16 373.53 1833.29 378.789C1833.41 348.627 1828.81 324.002 1816.66 296.18C1803.09 315.77 1786.78 336.172 1771.71 354.661L1794.96 355.152C1782.09 387.223 1753.34 428.014 1714.72 428.094C1703.17 428.205 1692.08 423.559 1684.06 415.246C1671.78 402.754 1668.03 386.592 1668.06 369.592C1668.09 356.53 1668.01 343.45 1668 330.387L1668.05 202.094L1668.12 202.149L1668.09 172.009C1673.87 169.321 1677.48 167.559 1682.57 163.654C1694.7 154.322 1702.63 140.546 1704.6 125.364C1706.53 109.808 1702.11 94.1303 1692.35 81.865C1681.68 68.4786 1668.1 62.2266 1651.37 60.4187ZM1618.98 114.819C1620.48 99.0998 1634.44 87.5677 1650.15 89.0505C1665.9 90.5355 1677.46 104.519 1675.96 120.267C1674.45 136.016 1660.45 147.556 1644.7 146.029C1628.99 144.506 1617.48 130.539 1618.98 114.819Z" fill="#5B604A"/>
<path d="M1449.75 479.297C1433.77 478.581 1421.17 479.334 1405.33 480.589C1399.7 492.487 1393.36 504.004 1387.73 515.987C1464.46 499.944 1534.23 511.823 1600.46 554.268C1615.47 564.12 1626.69 574.45 1638.4 587.853C1637.4 574.229 1626.27 556.478 1617.06 546.835C1574.59 502.388 1509.41 482.016 1449.75 479.297Z" fill="#C2A27C"/>
<path d="M1869.55 479.302C1812.92 476.663 1750.8 491.53 1704.06 524.374C1683.38 538.904 1660.38 562.318 1655.87 588.249C1664.07 579.818 1668.63 574.601 1677.95 566.721C1683.72 562.061 1689.66 557.628 1695.77 553.422C1742.54 521.661 1804.87 506.115 1861.06 509.372C1877.49 510.321 1890.82 512.679 1906.94 515.753C1902.31 505.337 1894.43 490.495 1889.01 480.478C1882.53 479.976 1876.04 479.584 1869.55 479.302Z" fill="#C2A27C"/>
<path d="M1933.54 575.306C1901.9 560.641 1858.71 557.053 1824.36 558.62C1765.25 561.32 1707 581.459 1659.3 616.544C1658.76 616.948 1657.33 620.99 1656.99 621.945C1653.55 622.514 1641.99 622.196 1637.65 622.214C1637.32 625.735 1637.1 628.625 1637.01 632.17C1646.41 632.342 1658.02 632.513 1667.31 631.644C1667.48 627.59 1667.39 622.906 1667.4 618.804C1679.64 612.393 1699.97 605.119 1713.22 600.857C1776.34 581.104 1843.32 577.02 1908.37 588.96C1920.62 591.103 1932.61 594.103 1944.71 597.012C1941.7 590.834 1937.12 580.773 1933.54 575.306Z" fill="#C2A27C"/>
<path d="M1637.65 622.215C1637.25 618.639 1637.55 618.211 1634.25 615.743C1620.23 605.242 1604.14 595.543 1588.31 588.116C1536.51 563.391 1478.79 553.772 1421.77 560.348C1403.73 562.375 1377.01 567.763 1361.1 575.753C1357.44 582.85 1353.86 589.989 1350.36 597.166C1362.8 594.135 1374.88 591.128 1387.51 588.918C1452.57 577.039 1519.53 581.203 1582.61 601.06C1595.72 605.297 1615.34 612.332 1627.6 618.584L1627.6 631.687C1630.75 631.889 1633.86 632.116 1637.01 632.171C1637.1 628.626 1637.32 625.736 1637.65 622.215Z" fill="#C2A27C"/>
<path d="M1458.11 522.157C1432.19 520.516 1405.5 525.201 1381.05 533.522C1377.05 540.569 1372.75 549.785 1369.07 557.163C1433.89 538.408 1499.97 541.929 1563.36 564.48C1591.42 574.657 1608.3 584.288 1632.83 600.551C1592.86 550.207 1520.74 524.735 1458.11 522.157Z" fill="#C2A27C"/>
<path d="M1852.81 522.159C1841.91 521.761 1831 522.074 1820.14 523.096C1762.88 528.454 1699.63 555.224 1662.35 600.112C1668.78 596.334 1675.22 591.797 1681.72 587.89C1693.17 581.112 1705.07 575.124 1717.34 569.956C1768.85 548.452 1825.07 540.688 1880.49 547.429C1897.34 549.64 1908.94 552.548 1925.37 556.847C1921.63 549.101 1917.85 541 1913.77 533.45C1893.96 525.576 1873.89 523.127 1852.81 522.159Z" fill="#C2A27C"/>
<path d="M1650.84 0.592619C1640.86 -1.9809 1630.71 4.06867 1628.22 14.0615C1625.74 24.0537 1631.88 34.1555 1641.89 36.552C1651.78 38.9186 1661.73 32.8727 1664.18 23.0042C1666.64 13.1363 1660.68 3.1343 1650.84 0.592619Z" fill="#5B604A"/>
<path d="M1906.29 252.765C1896.64 251.37 1887.7 258.099 1886.37 267.757C1885.04 277.415 1891.83 286.31 1901.5 287.573C1911.08 288.826 1919.87 282.115 1921.18 272.549C1922.5 262.983 1915.85 254.146 1906.29 252.765Z" fill="#5B604A"/>
<path d="M1394.5 252.834C1384.92 251.288 1375.9 257.819 1374.38 267.406C1372.86 276.994 1379.41 285.994 1389.01 287.489C1398.56 288.978 1407.52 282.453 1409.04 272.901C1410.55 263.35 1404.05 254.374 1394.5 252.834Z" fill="#5B604A"/>
<path d="M1376.82 300.064C1383.01 360.826 1409.2 415.672 1448.69 457.923C1468.85 460 1489.29 464.323 1509.08 470.805C1453.71 432.143 1415.25 370.923 1407.04 300.471C1402.6 302.631 1397.61 303.845 1392.33 303.845C1386.74 303.845 1381.46 302.478 1376.82 300.064ZM1888.09 299.973C1880.1 369.779 1842.42 430.563 1788 469.387C1807.28 463.415 1827.11 459.481 1846.63 457.66C1885.87 415.571 1911.92 361.028 1918.2 300.609C1913.83 302.683 1908.94 303.845 1903.78 303.845C1898.11 303.845 1892.77 302.443 1888.09 299.973ZM1676.63 1.53906C1679.55 6.52816 1681.23 12.3348 1681.23 18.5332C1681.23 23.3041 1680.23 27.8423 1678.44 31.9551C1787.24 45.8164 1873.48 131.874 1887.63 240.579C1892.43 237.956 1897.93 236.464 1903.78 236.464C1908.76 236.464 1913.48 237.543 1917.73 239.48C1902.74 114.103 1802.5 14.9168 1676.63 1.53906ZM1618.44 1.53906C1492.4 14.9352 1392.05 114.381 1377.28 240.008C1381.81 237.741 1386.92 236.464 1392.33 236.464C1397.79 236.464 1402.95 237.763 1407.51 240.067C1421.86 131.604 1508 45.7944 1616.63 31.9551C1614.84 27.8422 1613.84 23.3042 1613.84 18.5332C1613.84 12.3346 1615.52 6.52826 1618.44 1.53906Z" fill="#C2A27C"/>
<path d="M293.696 144.641C315.061 144.515 333.637 144.643 349.495 146.188C365.345 147.731 378.71 150.708 389.566 156.419C411.669 168.046 422.373 190.421 424.193 231.166C427.247 299.483 446.708 371.415 461.421 439.477L462.159 442.895L458.663 442.899L419.271 442.955L416.985 442.958L416.504 440.725C409.371 407.602 402.761 377.33 396.708 344.37C389.638 357.424 383.863 366.34 373.055 379.885L373.032 379.913L373.009 379.94L371.69 381.51L371.685 381.516L371.68 381.521C355.538 400.513 338.894 414.288 319.312 424.3C299.75 434.301 277.393 440.478 249.918 444.45L246.677 444.919L246.688 441.645L246.788 411.408L246.797 408.822L249.374 408.603C320.857 402.506 375.128 339.443 383.39 283.673C384.649 275.175 383.327 260.141 381.207 244.49C379.103 228.953 376.293 213.324 374.748 203.701C372.613 190.397 360.495 183.602 343.868 180.27C327.413 176.972 308.035 177.395 293.771 177.39L290.952 177.389L290.946 174.57L290.888 147.473L290.881 144.657L293.696 144.641Z" fill="#5B604A" stroke="#5B604A" stroke-width="5.65136"/>
<path d="M658.778 144.64C684.012 144.55 709.259 144.628 734.493 144.875L737.291 144.902L737.292 147.7L737.319 441.462V444.271L734.51 444.288L715.25 444.4H715.227L694.511 444.344L691.694 444.337L691.692 441.52L691.584 177.896L637.612 177.759L634.791 177.752L634.794 174.931L634.821 147.642L634.824 144.843L637.623 144.819L658.764 144.64H658.778Z" fill="#5B604A" stroke="#5B604A" stroke-width="5.65136"/>
<path d="M981.425 146.77C986.455 167.7 999.003 201.603 1006.44 223.756L1006.44 223.757C1025.69 281.198 1045.58 338.487 1066.09 395.625C1088.7 384.449 1104.8 372.364 1116.99 358.018C1129.69 343.077 1138.31 325.526 1145.57 303.625V303.624C1162.57 252.387 1164.6 200.541 1167.71 147.276L1167.86 144.616L1170.53 144.615L1211.53 144.604L1214.41 144.604L1214.36 147.478C1213.66 188.995 1208.56 236.21 1198.75 276.81C1195 296.563 1186.94 320.16 1175.35 342.243C1163.76 364.332 1148.53 385.107 1130.35 398.98C1067.46 446.964 991.355 448.937 913.445 448.713L910.608 448.704L910.628 445.868L910.82 417.168L910.839 414.358L913.647 414.36C961.022 414.393 979.615 414.669 1025.09 407.041C995.896 321.278 963.834 234.263 933.564 148.527L932.24 144.775L936.219 144.761L978.667 144.604L980.902 144.596L981.425 146.77Z" fill="#5B604A" stroke="#5B604A" stroke-width="5.65136"/>
<path d="M5.69727 144.773C40.8092 144.56 75.9232 144.549 111.035 144.738L113.848 144.753L113.846 147.565L113.536 572.742L113.534 575.599L110.679 575.565L71.124 575.115L68.3301 575.083V179.168L6.13672 179.056L3.42578 179.051L3.31836 176.342C2.9426 166.887 2.9947 157.003 2.88965 147.631L2.85742 144.791L5.69727 144.773Z" fill="#5B604A" stroke="#5B604A" stroke-width="5.65136"/>
</svg>
