<svg width="2014" height="633" viewBox="0 0 2014 633" fill="none" xmlns="http://www.w3.org/2000/svg">
<path d="M293.336 60.4187C301.723 59.588 311.886 61.4942 319.623 64.7956C333.777 70.9518 344.855 82.5432 350.371 96.9577C356.079 111.516 355.654 127.767 349.177 142.004C342.522 156.764 331.272 166.144 316.388 171.895C315.785 211.455 316.719 305.589 316.255 345.175C316.129 355.86 315.632 370.032 316.6 380.467C317.124 386.712 318.556 392.848 320.836 398.684C331.543 425.565 357.233 435.138 383.526 423.801C412.623 411.249 431.451 383.594 443.304 355.256L419.438 354.667C435.117 335.685 450.285 316.288 464.923 296.497C477.327 318.974 481.955 352.942 482.147 378.488C475.955 373.224 470.161 368.211 463.63 363.361C450.219 407.364 428.639 444.707 386.137 466.521C377.061 471.182 367.661 474.397 358.512 478.812C333.307 490.971 315.864 505.934 300.218 528.819L297.083 533.559C269.696 492.045 245.68 484.467 204.127 464.909C165.121 446.55 141.972 403.432 130.063 363.032C123.765 368.062 117.55 373.53 111.42 378.789C111.296 348.627 115.903 324.002 128.049 296.18C141.625 315.77 157.934 336.172 173 354.661L149.748 355.152C162.625 387.223 191.368 428.014 229.988 428.094C241.54 428.205 252.629 423.559 260.652 415.246C272.928 402.754 276.684 386.592 276.65 369.592C276.623 356.53 276.697 343.45 276.709 330.387L276.666 202.094L276.592 202.149L276.622 172.009C270.844 169.321 267.228 167.559 262.143 163.654C250.007 154.322 242.08 140.546 240.11 125.364C238.184 109.808 242.599 94.1303 252.36 81.865C263.026 68.4786 276.615 62.2266 293.336 60.4187ZM325.736 114.819C324.231 99.0998 310.276 87.5677 294.557 89.0505C278.807 90.5355 267.249 104.519 268.755 120.267C270.261 136.016 284.261 147.556 300.006 146.029C315.725 144.506 327.234 130.539 325.736 114.819Z" fill="#5B604A"/>
<path d="M494.963 479.297C510.938 478.581 523.539 479.334 539.379 480.589C545.012 492.487 551.356 504.004 556.977 515.987C480.249 499.944 410.483 511.823 344.25 554.268C329.242 564.12 318.025 574.45 306.312 587.853C307.316 574.229 318.441 556.478 327.65 546.835C370.12 502.388 435.3 482.016 494.963 479.297Z" fill="#C2A27C"/>
<path d="M75.1619 479.302C131.791 476.663 193.915 491.53 240.654 524.374C261.332 538.904 284.336 562.318 288.842 588.249C280.639 579.818 276.084 574.601 266.756 566.721C260.99 562.061 255.048 557.628 248.943 553.422C202.167 521.661 139.843 506.115 83.6496 509.372C67.216 510.321 53.8916 512.679 37.7715 515.753C42.3962 505.337 50.2809 490.495 55.7016 480.478C62.181 479.976 68.669 479.584 75.1619 479.302Z" fill="#C2A27C"/>
<path d="M11.1746 575.306C42.8093 560.641 86.0056 557.053 120.349 558.62C179.462 561.32 237.711 581.459 285.408 616.544C285.953 616.948 287.38 620.99 287.723 621.945C291.158 622.514 302.724 622.196 307.065 622.214C307.39 625.735 307.61 628.625 307.702 632.17C298.297 632.342 286.694 632.513 277.403 631.644C277.233 627.59 277.324 622.906 277.31 618.804C265.075 612.393 244.738 605.119 231.49 600.857C168.373 581.104 101.395 577.02 36.3446 588.96C24.0863 591.103 12.0967 594.103 0 597.012C3.00948 590.834 7.59197 580.773 11.1746 575.306Z" fill="#C2A27C"/>
<path d="M307.064 622.215C307.462 618.639 307.162 618.211 310.463 615.743C324.485 605.242 340.576 595.543 356.398 588.116C408.199 563.391 465.921 553.772 522.945 560.348C540.977 562.375 567.704 567.763 583.612 575.753C587.273 582.85 590.849 589.989 594.352 597.166C581.91 594.135 569.829 591.128 557.197 588.918C492.146 577.039 425.178 581.203 362.098 601.06C348.995 605.297 329.371 612.332 317.106 618.584L317.112 631.687C313.965 631.889 310.855 632.116 307.701 632.171C307.609 628.626 307.389 625.736 307.064 622.215Z" fill="#C2A27C"/>
<path d="M486.599 522.157C512.518 520.516 539.208 525.201 563.663 533.522C567.662 540.569 571.96 549.785 575.64 557.163C510.822 538.408 444.742 541.929 381.35 564.48C353.294 574.657 336.413 584.288 311.884 600.551C351.849 550.207 423.972 524.735 486.599 522.157Z" fill="#C2A27C"/>
<path d="M91.8999 522.159C102.8 521.761 113.713 522.074 124.572 523.096C181.832 528.454 245.086 555.224 282.357 600.112C275.926 596.334 269.493 591.797 262.988 587.89C251.537 581.112 239.639 575.124 227.375 569.956C175.857 548.452 119.638 540.688 64.2194 547.429C47.3694 549.64 35.7675 552.548 19.3418 556.847C23.083 549.101 26.8658 541 30.9382 533.45C50.7536 525.576 70.8256 523.127 91.8999 522.159Z" fill="#C2A27C"/>
<path d="M293.875 0.592619C303.85 -1.9809 314.002 4.06867 316.488 14.0615C318.974 24.0537 312.832 34.1555 302.821 36.552C292.932 38.9186 282.983 32.8727 280.527 23.0042C278.072 13.1363 284.03 3.1343 293.875 0.592619Z" fill="#5B604A"/>
<path d="M38.4188 252.765C48.0681 251.37 57.0078 258.099 58.3371 267.757C59.667 277.415 52.8778 286.31 43.2107 287.573C33.6355 288.826 24.8447 282.115 23.5276 272.549C22.2105 262.983 28.8613 254.146 38.4188 252.765Z" fill="#5B604A"/>
<path d="M550.212 252.834C559.794 251.288 568.813 257.819 570.332 267.406C571.85 276.994 565.299 285.994 555.704 287.489C546.152 288.978 537.194 282.453 535.675 272.901C534.163 263.35 540.666 254.374 550.212 252.834Z" fill="#5B604A"/>
<path d="M567.895 300.064C561.7 360.826 535.516 415.671 496.024 457.922C475.866 459.999 455.428 464.322 435.634 470.803C491.005 432.141 529.458 370.922 537.669 300.471C542.114 302.631 547.105 303.845 552.379 303.845C557.975 303.845 563.251 302.478 567.895 300.064ZM56.6221 299.973C64.6119 369.778 102.288 430.561 156.708 469.385C137.425 463.413 117.601 459.48 98.0791 457.659C58.843 415.571 32.7943 361.027 26.5127 300.609C30.8843 302.683 35.7726 303.845 40.9326 303.845C46.5984 303.845 51.936 302.443 56.6221 299.973ZM268.081 1.53906C265.161 6.52816 263.485 12.3348 263.485 18.5332C263.485 23.3041 264.479 27.8423 266.268 31.9551C157.473 45.8164 71.2267 131.874 57.0781 240.579C52.2838 237.956 46.7827 236.464 40.9326 236.464C35.9557 236.464 31.231 237.543 26.9795 239.48C41.9737 114.103 142.214 14.9168 268.081 1.53906ZM326.27 1.53906C452.313 14.9352 552.657 114.381 567.433 240.008C562.902 237.741 557.79 236.464 552.379 236.464C546.92 236.464 541.765 237.763 537.204 240.067C522.852 131.604 436.707 45.7944 328.083 31.9551C329.872 27.8422 330.866 23.3042 330.866 18.5332C330.866 12.3346 329.19 6.52826 326.27 1.53906Z" fill="#C2A27C"/>
<path d="M733.496 294.347C733.496 274.166 737.263 255.331 744.797 237.841C752.332 220.081 762.826 204.475 776.28 191.021C789.734 177.298 805.206 166.669 822.696 159.135C840.455 151.331 859.425 147.43 879.606 147.43C899.787 147.43 918.758 151.331 936.517 159.135C954.276 166.669 969.883 177.298 983.337 191.021C996.791 204.475 1007.28 220.081 1014.82 237.841C1022.62 255.331 1026.52 274.166 1026.52 294.347C1026.52 314.528 1022.62 333.498 1014.82 351.258C1007.28 368.748 996.791 384.22 983.337 397.674C969.883 411.128 954.276 421.622 936.517 429.156C918.758 436.691 899.787 440.458 879.606 440.458C859.425 440.458 840.455 436.825 822.696 429.56C805.206 422.295 789.734 412.07 776.28 398.885C762.826 385.7 752.332 370.228 744.797 352.469C737.263 334.709 733.496 315.336 733.496 294.347ZM753.677 294.751C753.677 312.241 756.906 328.655 763.364 343.993C769.822 359.33 778.836 372.784 790.406 384.355C801.977 395.925 815.296 405.074 830.365 411.801C845.702 418.259 861.982 421.488 879.203 421.488C896.962 421.488 913.511 418.259 928.848 411.801C944.186 405.074 957.64 395.925 969.21 384.355C980.78 372.784 989.795 359.33 996.253 343.993C1002.98 328.655 1006.34 312.107 1006.34 294.347C1006.34 276.857 1002.98 260.443 996.253 245.106C989.795 229.499 980.78 215.911 969.21 204.34C957.64 192.501 944.186 183.217 928.848 176.49C913.511 169.763 897.097 166.4 879.606 166.4C861.847 166.4 845.299 169.898 829.961 176.894C814.624 183.621 801.17 192.904 789.599 204.744C778.298 216.583 769.418 230.306 762.96 245.913C756.771 261.25 753.677 277.53 753.677 294.751Z" fill="#5B604A" stroke="#5B604A" stroke-width="18.6184"/>
<path d="M1260.14 147.43C1280.32 147.43 1299.29 151.332 1317.05 159.135C1331.7 165.349 1344.88 173.669 1356.6 184.093L1345.17 199.888C1334.67 190.15 1322.74 182.35 1309.38 176.49C1294.04 169.763 1277.63 166.4 1260.14 166.4C1242.38 166.4 1225.83 169.899 1210.5 176.895C1195.16 183.621 1181.7 192.905 1170.13 204.744C1158.83 216.584 1149.95 230.307 1143.49 245.913C1137.31 261.25 1134.21 277.53 1134.21 294.751C1134.21 312.241 1137.44 328.656 1143.9 343.993C1150.36 359.33 1159.37 372.784 1170.94 384.354C1182.51 395.925 1195.83 405.074 1210.9 411.801C1226.24 418.259 1242.52 421.488 1259.74 421.488C1277.5 421.488 1294.04 418.259 1309.38 411.801C1324.72 405.074 1338.17 395.925 1349.74 384.354C1361.31 372.784 1370.33 359.33 1376.79 343.993C1379.41 338.019 1381.52 331.86 1383.12 325.519H1280.01V306.288H1403.45V306.289H1406.59C1405.34 322.054 1401.6 337.044 1395.35 351.258C1387.82 368.748 1377.32 384.221 1363.87 397.675C1350.42 411.129 1334.81 421.622 1317.05 429.156C1299.29 436.69 1280.32 440.458 1260.14 440.458C1239.96 440.458 1220.99 436.826 1203.23 429.561C1185.74 422.295 1170.27 412.07 1156.81 398.885C1143.36 385.7 1132.87 370.228 1125.33 352.469C1117.8 334.71 1114.03 315.336 1114.03 294.348C1114.03 274.167 1117.8 255.331 1125.33 237.841C1132.87 220.082 1143.36 204.475 1156.81 191.021C1170.27 177.299 1185.74 166.669 1203.23 159.135C1220.99 151.332 1239.96 147.43 1260.14 147.43Z" fill="#5B604A"/>
<path d="M1260.14 147.43L1260.14 138.12H1260.14V147.43ZM1317.05 159.135L1313.31 167.658L1313.36 167.681L1313.42 167.705L1317.05 159.135ZM1356.6 184.093L1364.14 189.548L1369.07 182.73L1362.78 177.137L1356.6 184.093ZM1345.17 199.888L1338.84 206.714L1346.55 213.864L1352.72 205.343L1345.17 199.888ZM1309.38 176.49L1313.12 167.965L1313.12 167.965L1309.38 176.49ZM1260.14 166.4L1260.14 157.091H1260.14V166.4ZM1210.5 176.895L1214.23 185.42L1214.3 185.392L1214.36 185.364L1210.5 176.895ZM1170.13 204.744L1163.48 198.238L1163.44 198.277L1163.4 198.316L1170.13 204.744ZM1143.49 245.913L1134.89 242.354L1134.88 242.392L1134.86 242.43L1143.49 245.913ZM1134.21 294.751L1124.9 294.751V294.751H1134.21ZM1143.9 343.993L1135.32 347.606L1135.32 347.606L1143.9 343.993ZM1170.94 384.354L1164.36 390.937L1164.36 390.937L1170.94 384.354ZM1210.9 411.801L1207.1 420.301L1207.19 420.342L1207.29 420.38L1210.9 411.801ZM1259.74 421.488V430.797H1259.74L1259.74 421.488ZM1309.38 411.801L1312.99 420.38L1313.06 420.354L1313.12 420.326L1309.38 411.801ZM1349.74 384.354L1356.33 390.937L1356.33 390.937L1349.74 384.354ZM1376.79 343.993L1368.26 340.254L1368.23 340.317L1368.21 340.381L1376.79 343.993ZM1383.12 325.519L1392.14 327.795L1395.06 316.209H1383.12V325.519ZM1280.01 325.519H1270.7V334.828H1280.01V325.519ZM1280.01 306.288V296.979H1270.7V306.288H1280.01ZM1403.45 306.288H1412.75V296.979H1403.45V306.288ZM1403.45 306.289H1394.14V315.598H1403.45V306.289ZM1406.59 306.289L1415.87 307.023L1416.66 296.98H1406.59V306.289ZM1395.35 351.258L1386.83 347.513L1386.82 347.544L1386.8 347.575L1395.35 351.258ZM1363.87 397.675L1370.45 404.257V404.257L1363.87 397.675ZM1317.05 429.156L1320.69 437.726H1320.69L1317.05 429.156ZM1260.14 440.458V449.767H1260.14L1260.14 440.458ZM1203.23 429.561L1199.66 438.158L1199.68 438.167L1199.71 438.177L1203.23 429.561ZM1156.81 398.885L1150.3 405.533L1150.3 405.534L1156.81 398.885ZM1125.33 352.469L1116.76 356.104L1116.76 356.104L1125.33 352.469ZM1114.03 294.348L1104.72 294.348V294.348H1114.03ZM1125.33 237.841L1133.88 241.524L1133.89 241.5L1133.9 241.477L1125.33 237.841ZM1156.81 191.021L1163.4 197.604L1163.43 197.571L1163.46 197.539L1156.81 191.021ZM1203.23 159.135L1206.91 167.684L1206.94 167.671L1206.98 167.658L1203.23 159.135ZM1260.14 147.43L1260.14 156.739C1279.09 156.739 1296.77 160.394 1313.31 167.658L1317.05 159.135L1320.8 150.612C1301.81 142.269 1281.56 138.121 1260.14 138.12L1260.14 147.43ZM1317.05 159.135L1313.42 167.705C1327.14 173.528 1339.46 181.308 1350.41 191.048L1356.6 184.093L1362.78 177.137C1350.3 166.031 1336.25 157.169 1320.69 150.565L1317.05 159.135ZM1356.6 184.093L1349.05 178.637L1337.63 194.432L1345.17 199.888L1352.72 205.343L1364.14 189.548L1356.6 184.093ZM1345.17 199.888L1351.5 193.062C1340.22 182.603 1327.42 174.234 1313.12 167.965L1309.38 176.49L1305.64 185.016C1318.07 190.465 1329.12 197.696 1338.84 206.714L1345.17 199.888ZM1309.38 176.49L1313.12 167.965C1296.55 160.698 1278.86 157.091 1260.14 157.091L1260.14 166.4L1260.14 175.71C1276.4 175.71 1291.54 178.829 1305.64 185.016L1309.38 176.49ZM1260.14 166.4V157.091C1241.12 157.091 1223.25 160.846 1206.63 168.425L1210.5 176.895L1214.36 185.364C1228.42 178.951 1243.64 175.71 1260.14 175.71V166.4ZM1210.5 176.895L1206.76 168.369C1190.34 175.57 1175.89 185.534 1163.48 198.238L1170.13 204.744L1176.79 211.251C1187.52 200.275 1199.98 191.673 1214.23 185.42L1210.5 176.895ZM1170.13 204.744L1163.4 198.316C1151.28 211.015 1141.78 225.718 1134.89 242.354L1143.49 245.913L1152.1 249.473C1158.13 234.895 1166.39 222.152 1176.87 211.172L1170.13 204.744ZM1143.49 245.913L1134.86 242.43C1128.21 258.92 1124.9 276.386 1124.9 294.751L1134.21 294.751L1143.52 294.751C1143.52 278.674 1146.4 263.581 1152.13 249.397L1143.49 245.913ZM1134.21 294.751H1124.9C1124.9 313.418 1128.36 331.067 1135.32 347.606L1143.9 343.993L1152.48 340.381C1146.53 326.244 1143.52 311.064 1143.52 294.751H1134.21ZM1143.9 343.993L1135.32 347.606C1142.24 364.033 1151.92 378.501 1164.36 390.937L1170.94 384.354L1177.52 377.772C1166.82 367.068 1158.48 354.627 1152.48 340.381L1143.9 343.993ZM1170.94 384.354L1164.36 390.937C1176.74 403.319 1191.01 413.115 1207.1 420.301L1210.9 411.801L1214.69 403.3C1200.65 397.033 1188.28 388.531 1177.52 377.772L1170.94 384.354ZM1210.9 411.801L1207.29 420.38C1223.81 427.337 1241.32 430.797 1259.74 430.797V421.488V412.179C1243.71 412.179 1228.67 409.181 1214.51 403.221L1210.9 411.801ZM1259.74 421.488L1259.74 430.797C1278.65 430.797 1296.44 427.351 1312.99 420.38L1309.38 411.801L1305.77 403.221C1291.65 409.166 1276.34 412.179 1259.74 412.179L1259.74 421.488ZM1309.38 411.801L1313.12 420.326C1329.49 413.145 1343.92 403.346 1356.33 390.937L1349.74 384.354L1343.16 377.772C1332.43 388.504 1319.95 397.002 1305.64 403.276L1309.38 411.801ZM1349.74 384.354L1356.33 390.937C1368.76 378.501 1378.45 364.034 1385.37 347.606L1376.79 343.993L1368.21 340.381C1362.21 354.627 1353.87 367.068 1343.16 377.772L1349.74 384.354ZM1376.79 343.993L1385.31 347.732C1388.14 341.283 1390.42 334.635 1392.14 327.795L1383.12 325.519L1374.09 323.242C1372.62 329.086 1370.67 334.755 1368.26 340.254L1376.79 343.993ZM1383.12 325.519V316.209H1280.01V325.519V334.828H1383.12V325.519ZM1280.01 325.519H1289.32V306.288H1280.01H1270.7V325.519H1280.01ZM1280.01 306.288V315.597H1403.45V306.288V296.979H1280.01V306.288ZM1403.45 306.288H1394.14V306.289H1403.45H1412.75V306.288H1403.45ZM1403.45 306.289V315.598H1406.59V306.289V296.98H1403.45V306.289ZM1406.59 306.289L1397.31 305.555C1396.14 320.302 1392.65 334.272 1386.83 347.513L1395.35 351.258L1403.88 355.003C1410.55 339.816 1414.54 323.806 1415.87 307.023L1406.59 306.289ZM1395.35 351.258L1386.8 347.575C1379.74 363.984 1369.91 378.472 1357.29 391.092L1363.87 397.675L1370.45 404.257C1384.74 389.969 1395.9 373.512 1403.9 354.941L1395.35 351.258ZM1363.87 397.675L1357.29 391.092C1344.69 403.688 1330.09 413.512 1313.42 420.586L1317.05 429.156L1320.69 437.726C1339.53 429.732 1356.14 418.569 1370.45 404.257L1363.87 397.675ZM1317.05 429.156L1313.42 420.586C1296.86 427.61 1279.13 431.149 1260.14 431.149L1260.14 440.458L1260.14 449.767C1281.51 449.767 1301.72 445.771 1320.69 437.726L1317.05 429.156ZM1260.14 440.458V431.149C1241.1 431.149 1223.34 427.728 1206.76 420.944L1203.23 429.561L1199.71 438.177C1218.64 445.923 1238.81 449.767 1260.14 449.767V440.458ZM1203.23 429.561L1206.8 420.964C1190.4 414.151 1175.93 404.585 1163.33 392.236L1156.81 398.885L1150.3 405.534C1164.6 419.554 1181.08 430.439 1199.66 438.158L1203.23 429.561ZM1156.81 398.885L1163.33 392.236C1150.77 379.931 1140.97 365.49 1133.9 348.833L1125.33 352.469L1116.76 356.104C1124.76 374.966 1135.95 391.469 1150.3 405.533L1156.81 398.885ZM1125.33 352.469L1133.9 348.833C1126.9 332.322 1123.34 314.197 1123.34 294.348H1114.03H1104.72C1104.72 316.474 1108.7 337.097 1116.76 356.104L1125.33 352.469ZM1114.03 294.348L1123.34 294.348C1123.34 275.356 1126.88 257.782 1133.88 241.524L1125.33 237.841L1116.78 234.158C1108.72 252.88 1104.72 272.977 1104.72 294.348L1114.03 294.348ZM1125.33 237.841L1133.9 241.477C1140.97 224.803 1150.8 210.2 1163.4 197.604L1156.81 191.021L1150.23 184.439C1135.92 198.75 1124.76 215.361 1116.76 234.205L1125.33 237.841ZM1156.81 191.021L1163.46 197.539C1176.08 184.671 1190.54 174.736 1206.91 167.684L1203.23 159.135L1199.55 150.585C1180.94 158.602 1164.46 169.926 1150.17 184.504L1156.81 191.021ZM1203.23 159.135L1206.98 167.658C1223.51 160.394 1241.2 156.739 1260.14 156.739V147.43V138.12C1238.72 138.12 1218.47 142.269 1199.49 150.612L1203.23 159.135Z" fill="#5B604A"/>
<path d="M1494.1 147.43H1670.88V166.4H1513.87V280.221H1655.14V299.191H1513.87V415.03H1676.53V434H1494.1V147.43Z" fill="#5B604A" stroke="#5B604A" stroke-width="18.6184"/>
<path d="M2003.79 446.916L1777.76 192.231L1783.01 188.195L1783.41 558.283H1764.04L1764.04 147.43H1765.25L1991.28 404.132L1986.03 405.746L1985.63 153.484H2004.6V446.916H2003.79Z" fill="#5B604A" stroke="#5B604A" stroke-width="18.6184"/>
</svg>
